<?xml version="1.0" encoding="UTF-8" standalone="no"?>
<!DOCTYPE svg PUBLIC "-//W3C//DTD SVG 1.1//EN"
 "http://www.w3.org/Graphics/SVG/1.1/DTD/svg11.dtd">
<!-- Generated by graphviz version 2.36.0 (20140111.2315)
 -->
<!-- Title: planning Pages: 1 -->
<svg width="2265pt" height="404pt"
 viewBox="0.00 0.00 2264.65 404.00" xmlns="http://www.w3.org/2000/svg" xmlns:xlink="http://www.w3.org/1999/xlink">
<g id="graph0" class="graph" transform="scale(1 1) rotate(0) translate(4 400)">
<title>planning</title>
<polygon fill="white" stroke="none" points="-4,4 -4,-400 2260.65,-400 2260.65,4 -4,4"/>
<!-- hashMatch -->
<g id="node1" class="node"><title>hashMatch</title>
<ellipse fill="blue" stroke="blue" cx="602.647" cy="-306" rx="48.3649" ry="18"/>
<text text-anchor="middle" x="602.647" y="-301.8" font-family="Times,serif" font-size="14.00" fill="white">hashMatch</text>
</g>
<!-- wayfarerServer -->
<g id="node6" class="node"><title>wayfarerServer</title>
<ellipse fill="gray" stroke="gray" cx="590.647" cy="-234" rx="64.408" ry="18"/>
<text text-anchor="middle" x="590.647" y="-229.8" font-family="Times,serif" font-size="14.00" fill="white">wayfarerServer</text>
</g>
<!-- hashMatch&#45;&gt;wayfarerServer -->
<g id="edge3" class="edge"><title>hashMatch&#45;&gt;wayfarerServer</title>
<path fill="none" stroke="black" d="M599.681,-287.697C598.359,-279.983 596.769,-270.712 595.295,-262.112"/>
<polygon fill="black" stroke="black" points="598.719,-261.369 593.579,-252.104 591.819,-262.552 598.719,-261.369"/>
</g>
<!-- methodist -->
<g id="node2" class="node"><title>methodist</title>
<ellipse fill="green" stroke="green" cx="461.647" cy="-378" rx="44.4828" ry="18"/>
<text text-anchor="middle" x="461.647" y="-373.8" font-family="Times,serif" font-size="14.00" fill="white">methodist</text>
</g>
<!-- wayfarerToServer -->
<g id="node5" class="node"><title>wayfarerToServer</title>
<ellipse fill="orange" stroke="orange" cx="461.647" cy="-306" rx="73.2191" ry="18"/>
<text text-anchor="middle" x="461.647" y="-301.8" font-family="Times,serif" font-size="14.00" fill="white">wayfarerToServer</text>
</g>
<!-- methodist&#45;&gt;wayfarerToServer -->
<g id="edge1" class="edge"><title>methodist&#45;&gt;wayfarerToServer</title>
<path fill="none" stroke="black" d="M461.647,-359.697C461.647,-351.983 461.647,-342.712 461.647,-334.112"/>
<polygon fill="black" stroke="black" points="465.147,-334.104 461.647,-324.104 458.147,-334.104 465.147,-334.104"/>
</g>
<!-- wayfarer -->
<g id="node3" class="node"><title>wayfarer</title>
<ellipse fill="green" stroke="green" cx="623.647" cy="-378" rx="41.2878" ry="18"/>
<text text-anchor="middle" x="623.647" y="-373.8" font-family="Times,serif" font-size="14.00" fill="white">wayfarer</text>
</g>
<!-- wayfarer&#45;&gt;wayfarerToServer -->
<g id="edge2" class="edge"><title>wayfarer&#45;&gt;wayfarerToServer</title>
<path fill="none" stroke="black" d="M595.429,-364.807C570.669,-354.108 534.256,-338.374 505.668,-326.021"/>
<polygon fill="black" stroke="black" points="506.869,-322.728 496.301,-321.974 504.092,-329.153 506.869,-322.728"/>
</g>
<!-- wayfarer&#45;&gt;wayfarerServer -->
<g id="edge4" class="edge"><title>wayfarer&#45;&gt;wayfarerServer</title>
<path fill="none" stroke="black" d="M638.402,-360.936C653.11,-342.872 671.878,-312.818 659.647,-288 653.146,-274.808 641.608,-263.984 629.806,-255.635"/>
<polygon fill="black" stroke="black" points="631.511,-252.567 621.234,-249.994 627.664,-258.415 631.511,-252.567"/>
</g>
<!-- wayfarerToFs -->
<g id="node4" class="node"><title>wayfarerToFs</title>
<ellipse fill="orange" stroke="orange" cx="498.647" cy="-162" rx="59.1371" ry="18"/>
<text text-anchor="middle" x="498.647" y="-157.8" font-family="Times,serif" font-size="14.00" fill="white">wayfarerToFs</text>
</g>
<!-- portableBuildProcess -->
<g id="node42" class="node"><title>portableBuildProcess</title>
<polygon fill="none" stroke="black" points="547.967,-108 413.327,-108 413.327,-72 547.967,-72 547.967,-108"/>
<text text-anchor="middle" x="480.647" y="-85.8" font-family="Times,serif" font-size="14.00">portableBuildProcess</text>
</g>
<!-- wayfarerToFs&#45;&gt;portableBuildProcess -->
<g id="edge45" class="edge"><title>wayfarerToFs&#45;&gt;portableBuildProcess</title>
<path fill="none" stroke="black" d="M494.198,-143.697C492.192,-135.898 489.778,-126.509 487.546,-117.829"/>
<polygon fill="black" stroke="black" points="490.926,-116.918 485.045,-108.104 484.146,-118.661 490.926,-116.918"/>
</g>
<!-- wayfarerToServer&#45;&gt;wayfarerToFs -->
<g id="edge6" class="edge"><title>wayfarerToServer&#45;&gt;wayfarerToFs</title>
<path fill="none" stroke="black" d="M466.11,-287.871C472.444,-263.564 484.103,-218.819 491.609,-190.013"/>
<polygon fill="black" stroke="black" points="495.034,-190.749 494.168,-180.189 488.26,-188.984 495.034,-190.749"/>
</g>
<!-- wayfarerToServer&#45;&gt;wayfarerServer -->
<g id="edge5" class="edge"><title>wayfarerToServer&#45;&gt;wayfarerServer</title>
<path fill="none" stroke="black" d="M490.597,-289.291C509.15,-279.223 533.409,-266.06 553.393,-255.216"/>
<polygon fill="black" stroke="black" points="555.118,-258.262 562.238,-250.416 551.779,-252.109 555.118,-258.262"/>
</g>
<!-- wayfarerServer&#45;&gt;wayfarerToFs -->
<g id="edge7" class="edge"><title>wayfarerServer&#45;&gt;wayfarerToFs</title>
<path fill="none" stroke="black" d="M569.309,-216.765C556.913,-207.333 541.124,-195.32 527.617,-185.042"/>
<polygon fill="black" stroke="black" points="529.63,-182.176 519.552,-178.906 525.391,-187.747 529.63,-182.176"/>
</g>
<!-- preConfiguredAccountDown -->
<g id="node13" class="node"><title>preConfiguredAccountDown</title>
<ellipse fill="gray" stroke="gray" cx="729.647" cy="-162" rx="112.156" ry="18"/>
<text text-anchor="middle" x="729.647" y="-157.8" font-family="Times,serif" font-size="14.00" fill="white">preConfiguredAccountDown</text>
</g>
<!-- wayfarerServer&#45;&gt;preConfiguredAccountDown -->
<g id="edge15" class="edge"><title>wayfarerServer&#45;&gt;preConfiguredAccountDown</title>
<path fill="none" stroke="black" d="M620.466,-217.983C640.15,-208.071 666.219,-194.942 687.948,-184"/>
<polygon fill="black" stroke="black" points="689.606,-187.083 696.963,-179.46 686.458,-180.831 689.606,-187.083"/>
</g>
<!-- composableServers -->
<g id="node16" class="node"><title>composableServers</title>
<polygon fill="none" stroke="black" points="932.789,-108 808.505,-108 808.505,-72 932.789,-72 932.789,-108"/>
<text text-anchor="middle" x="870.647" y="-85.8" font-family="Times,serif" font-size="14.00">composableServers</text>
</g>
<!-- wayfarerServer&#45;&gt;composableServers -->
<g id="edge14" class="edge"><title>wayfarerServer&#45;&gt;composableServers</title>
<path fill="none" stroke="black" d="M588.723,-215.696C587.526,-195.628 588.944,-162.893 607.647,-144 633.79,-117.592 729.513,-103.514 797.925,-96.6544"/>
<polygon fill="black" stroke="black" points="798.617,-100.104 808.232,-95.6545 797.941,-93.1366 798.617,-100.104"/>
</g>
<!-- bodyParserStream -->
<g id="node7" class="node"><title>bodyParserStream</title>
<ellipse fill="gray" stroke="gray" cx="870.647" cy="-234" rx="74.415" ry="18"/>
<text text-anchor="middle" x="870.647" y="-229.8" font-family="Times,serif" font-size="14.00" fill="white">bodyParserStream</text>
</g>
<!-- streamingLogic -->
<g id="node15" class="node"><title>streamingLogic</title>
<polygon fill="none" stroke="black" points="1087.04,-180 984.25,-180 984.25,-144 1087.04,-144 1087.04,-180"/>
<text text-anchor="middle" x="1035.65" y="-157.8" font-family="Times,serif" font-size="14.00">streamingLogic</text>
</g>
<!-- bodyParserStream&#45;&gt;streamingLogic -->
<g id="edge10" class="edge"><title>bodyParserStream&#45;&gt;streamingLogic</title>
<path fill="none" stroke="black" d="M906.044,-217.983C929.405,-208.073 960.343,-194.947 986.133,-184.006"/>
<polygon fill="black" stroke="black" points="987.54,-187.211 995.378,-180.084 984.806,-180.767 987.54,-187.211"/>
</g>
<!-- levelWriteStream -->
<g id="node8" class="node"><title>levelWriteStream</title>
<ellipse fill="gray" stroke="gray" cx="1035.65" cy="-234" rx="72.1851" ry="18"/>
<text text-anchor="middle" x="1035.65" y="-229.8" font-family="Times,serif" font-size="14.00" fill="white">levelWriteStream</text>
</g>
<!-- levelWriteStream&#45;&gt;streamingLogic -->
<g id="edge11" class="edge"><title>levelWriteStream&#45;&gt;streamingLogic</title>
<path fill="none" stroke="black" d="M1035.65,-215.697C1035.65,-207.983 1035.65,-198.712 1035.65,-190.112"/>
<polygon fill="black" stroke="black" points="1039.15,-190.104 1035.65,-180.104 1032.15,-190.104 1039.15,-190.104"/>
</g>
<!-- boleStream -->
<g id="node9" class="node"><title>boleStream</title>
<ellipse fill="green" stroke="green" cx="1176.65" cy="-234" rx="50.0733" ry="18"/>
<text text-anchor="middle" x="1176.65" y="-229.8" font-family="Times,serif" font-size="14.00" fill="white">boleStream</text>
</g>
<!-- boleStream&#45;&gt;streamingLogic -->
<g id="edge18" class="edge"><title>boleStream&#45;&gt;streamingLogic</title>
<path fill="none" stroke="black" d="M1148.45,-219.003C1128.6,-209.149 1101.66,-195.771 1079.08,-184.561"/>
<polygon fill="black" stroke="black" points="1080.54,-181.378 1070.02,-180.066 1077.42,-187.648 1080.54,-181.378"/>
</g>
<!-- httpNdjson -->
<g id="node10" class="node"><title>httpNdjson</title>
<ellipse fill="green" stroke="green" cx="1176.65" cy="-306" rx="49.1222" ry="18"/>
<text text-anchor="middle" x="1176.65" y="-301.8" font-family="Times,serif" font-size="14.00" fill="white">httpNdjson</text>
</g>
<!-- httpNdjson&#45;&gt;boleStream -->
<g id="edge9" class="edge"><title>httpNdjson&#45;&gt;boleStream</title>
<path fill="none" stroke="black" d="M1176.65,-287.697C1176.65,-279.983 1176.65,-270.712 1176.65,-262.112"/>
<polygon fill="black" stroke="black" points="1180.15,-262.104 1176.65,-252.104 1173.15,-262.104 1180.15,-262.104"/>
</g>
<!-- httpResponseStream -->
<g id="node11" class="node"><title>httpResponseStream</title>
<ellipse fill="gray" stroke="gray" cx="1176.65" cy="-378" rx="82.2173" ry="18"/>
<text text-anchor="middle" x="1176.65" y="-373.8" font-family="Times,serif" font-size="14.00" fill="white">httpResponseStream</text>
</g>
<!-- httpResponseStream&#45;&gt;httpNdjson -->
<g id="edge8" class="edge"><title>httpResponseStream&#45;&gt;httpNdjson</title>
<path fill="none" stroke="black" d="M1176.65,-359.697C1176.65,-351.983 1176.65,-342.712 1176.65,-334.112"/>
<polygon fill="black" stroke="black" points="1180.15,-334.104 1176.65,-324.104 1173.15,-334.104 1180.15,-334.104"/>
</g>
<!-- serverError -->
<g id="node12" class="node"><title>serverError</title>
<ellipse fill="gray" stroke="gray" cx="727.647" cy="-234" rx="50.054" ry="18"/>
<text text-anchor="middle" x="727.647" y="-229.8" font-family="Times,serif" font-size="14.00" fill="white">serverError</text>
</g>
<!-- serverError&#45;&gt;preConfiguredAccountDown -->
<g id="edge16" class="edge"><title>serverError&#45;&gt;preConfiguredAccountDown</title>
<path fill="none" stroke="black" d="M728.142,-215.697C728.362,-207.983 728.627,-198.712 728.873,-190.112"/>
<polygon fill="black" stroke="black" points="732.371,-190.2 729.159,-180.104 725.374,-190 732.371,-190.2"/>
</g>
<!-- serverError&#45;&gt;composableServers -->
<g id="edge13" class="edge"><title>serverError&#45;&gt;composableServers</title>
<path fill="none" stroke="black" d="M763.989,-221.447C795.926,-210.586 839.068,-193.959 850.647,-180 864.913,-162.802 869.529,-137.527 870.799,-118.301"/>
<polygon fill="black" stroke="black" points="874.306,-118.191 871.204,-108.061 867.311,-117.914 874.306,-118.191"/>
</g>
<!-- preConfiguredAccountDown&#45;&gt;composableServers -->
<g id="edge17" class="edge"><title>preConfiguredAccountDown&#45;&gt;composableServers</title>
<path fill="none" stroke="black" d="M762.35,-144.765C781.625,-135.195 806.253,-122.969 827.151,-112.594"/>
<polygon fill="black" stroke="black" points="828.754,-115.706 836.155,-108.124 825.641,-109.436 828.754,-115.706"/>
</g>
<!-- headerStream -->
<g id="node14" class="node"><title>headerStream</title>
<ellipse fill="gray" stroke="gray" cx="1303.65" cy="-234" rx="58.5794" ry="18"/>
<text text-anchor="middle" x="1303.65" y="-229.8" font-family="Times,serif" font-size="14.00" fill="white">headerStream</text>
</g>
<!-- headerStream&#45;&gt;streamingLogic -->
<g id="edge12" class="edge"><title>headerStream&#45;&gt;streamingLogic</title>
<path fill="none" stroke="black" d="M1260.59,-221.753C1216.34,-210.195 1147.04,-192.094 1097.05,-179.037"/>
<polygon fill="black" stroke="black" points="1097.88,-175.637 1087.32,-176.496 1096.11,-182.41 1097.88,-175.637"/>
</g>
<!-- streamingLogic&#45;&gt;composableServers -->
<g id="edge19" class="edge"><title>streamingLogic&#45;&gt;composableServers</title>
<path fill="none" stroke="black" d="M995.284,-143.876C972.627,-134.264 944.174,-122.193 920.177,-112.013"/>
<polygon fill="black" stroke="black" points="921.452,-108.752 910.88,-108.068 918.719,-115.196 921.452,-108.752"/>
</g>
<!-- composableApplications -->
<g id="node41" class="node"><title>composableApplications</title>
<polygon fill="none" stroke="black" points="1257.96,-36 1103.34,-36 1103.34,-0 1257.96,-0 1257.96,-36"/>
<text text-anchor="middle" x="1180.65" y="-13.8" font-family="Times,serif" font-size="14.00">composableApplications</text>
</g>
<!-- composableServers&#45;&gt;composableApplications -->
<g id="edge48" class="edge"><title>composableServers&#45;&gt;composableApplications</title>
<path fill="none" stroke="black" d="M933.007,-74.9187C979.682,-64.3792 1044.06,-49.8425 1095.48,-38.2323"/>
<polygon fill="black" stroke="black" points="1096.26,-41.6426 1105.25,-36.0259 1094.72,-34.8145 1096.26,-41.6426"/>
</g>
<!-- gherkinStream -->
<g id="node17" class="node"><title>gherkinStream</title>
<ellipse fill="green" stroke="green" cx="2178.65" cy="-378" rx="62.2554" ry="18"/>
<text text-anchor="middle" x="2178.65" y="-373.8" font-family="Times,serif" font-size="14.00" fill="white">gherkinStream</text>
</g>
<!-- cukeTap -->
<g id="node18" class="node"><title>cukeTap</title>
<ellipse fill="gray" stroke="gray" cx="2178.65" cy="-306" rx="39.3988" ry="18"/>
<text text-anchor="middle" x="2178.65" y="-301.8" font-family="Times,serif" font-size="14.00" fill="white">cukeTap</text>
</g>
<!-- gherkinStream&#45;&gt;cukeTap -->
<g id="edge20" class="edge"><title>gherkinStream&#45;&gt;cukeTap</title>
<path fill="none" stroke="black" d="M2178.65,-359.697C2178.65,-351.983 2178.65,-342.712 2178.65,-334.112"/>
<polygon fill="black" stroke="black" points="2182.15,-334.104 2178.65,-324.104 2175.15,-334.104 2182.15,-334.104"/>
</g>
<!-- gherkinDotMashup -->
<g id="node19" class="node"><title>gherkinDotMashup</title>
<ellipse fill="gray" stroke="gray" cx="2178.65" cy="-234" rx="78.3226" ry="18"/>
<text text-anchor="middle" x="2178.65" y="-229.8" font-family="Times,serif" font-size="14.00" fill="white">gherkinDotMashup</text>
</g>
<!-- cukeTap&#45;&gt;gherkinDotMashup -->
<g id="edge21" class="edge"><title>cukeTap&#45;&gt;gherkinDotMashup</title>
<path fill="none" stroke="black" d="M2178.65,-287.697C2178.65,-279.983 2178.65,-270.712 2178.65,-262.112"/>
<polygon fill="black" stroke="black" points="2182.15,-262.104 2178.65,-252.104 2175.15,-262.104 2182.15,-262.104"/>
</g>
<!-- testableThoughts -->
<g id="node43" class="node"><title>testableThoughts</title>
<polygon fill="none" stroke="black" points="2233.89,-180 2123.41,-180 2123.41,-144 2233.89,-144 2233.89,-180"/>
<text text-anchor="middle" x="2178.65" y="-157.8" font-family="Times,serif" font-size="14.00">testableThoughts</text>
</g>
<!-- gherkinDotMashup&#45;&gt;testableThoughts -->
<g id="edge42" class="edge"><title>gherkinDotMashup&#45;&gt;testableThoughts</title>
<path fill="none" stroke="black" d="M2178.65,-215.697C2178.65,-207.983 2178.65,-198.712 2178.65,-190.112"/>
<polygon fill="black" stroke="black" points="2182.15,-190.104 2178.65,-180.104 2175.15,-190.104 2182.15,-190.104"/>
</g>
<!-- autoNpmInstall -->
<g id="node20" class="node"><title>autoNpmInstall</title>
<ellipse fill="gray" stroke="gray" cx="93.6472" cy="-90" rx="65.1857" ry="18"/>
<text text-anchor="middle" x="93.6472" y="-85.8" font-family="Times,serif" font-size="14.00" fill="white">autoNpmInstall</text>
</g>
<!-- instantProjects -->
<g id="node27" class="node"><title>instantProjects</title>
<polygon fill="none" stroke="black" points="320.974,-36 222.321,-36 222.321,-0 320.974,-0 320.974,-36"/>
<text text-anchor="middle" x="271.647" y="-13.8" font-family="Times,serif" font-size="14.00">instantProjects</text>
</g>
<!-- autoNpmInstall&#45;&gt;instantProjects -->
<g id="edge28" class="edge"><title>autoNpmInstall&#45;&gt;instantProjects</title>
<path fill="none" stroke="black" d="M129.668,-74.8345C155.223,-64.7846 189.941,-51.1315 218.649,-39.8421"/>
<polygon fill="black" stroke="black" points="220.107,-43.0297 228.132,-36.1127 217.545,-36.5154 220.107,-43.0297"/>
</g>
<!-- polyrepoUpdate -->
<g id="node21" class="node"><title>polyrepoUpdate</title>
<ellipse fill="orange" stroke="orange" cx="354.647" cy="-162" rx="67.1198" ry="18"/>
<text text-anchor="middle" x="354.647" y="-157.8" font-family="Times,serif" font-size="14.00" fill="white">polyrepoUpdate</text>
</g>
<!-- polyrepo -->
<g id="node28" class="node"><title>polyrepo</title>
<polygon fill="none" stroke="black" points="358.973,-108 294.321,-108 294.321,-72 358.973,-72 358.973,-108"/>
<text text-anchor="middle" x="326.647" y="-85.8" font-family="Times,serif" font-size="14.00">polyrepo</text>
</g>
<!-- polyrepoUpdate&#45;&gt;polyrepo -->
<g id="edge30" class="edge"><title>polyrepoUpdate&#45;&gt;polyrepo</title>
<path fill="none" stroke="black" d="M347.869,-144.055C344.718,-136.176 340.894,-126.617 337.365,-117.794"/>
<polygon fill="black" stroke="black" points="340.521,-116.26 333.557,-108.275 334.022,-118.86 340.521,-116.26"/>
</g>
<!-- initialize -->
<g id="node22" class="node"><title>initialize</title>
<ellipse fill="green" stroke="green" cx="217.647" cy="-90" rx="41.069" ry="18"/>
<text text-anchor="middle" x="217.647" y="-85.8" font-family="Times,serif" font-size="14.00" fill="white">initialize</text>
</g>
<!-- initialize&#45;&gt;instantProjects -->
<g id="edge29" class="edge"><title>initialize&#45;&gt;instantProjects</title>
<path fill="none" stroke="black" d="M230.172,-72.7646C236.726,-64.268 244.897,-53.6766 252.249,-44.1465"/>
<polygon fill="black" stroke="black" points="255.1,-46.1796 258.437,-36.1239 249.558,-41.9039 255.1,-46.1796"/>
</g>
<!-- initializeEngine -->
<g id="node23" class="node"><title>initializeEngine</title>
<ellipse fill="orange" stroke="orange" cx="79.6472" cy="-234" rx="66.143" ry="18"/>
<text text-anchor="middle" x="79.6472" y="-229.8" font-family="Times,serif" font-size="14.00" fill="white">initializeEngine</text>
</g>
<!-- initializeEngine&#45;&gt;initialize -->
<g id="edge25" class="edge"><title>initializeEngine&#45;&gt;initialize</title>
<path fill="none" stroke="black" d="M46.9563,-218.196C31.7558,-209.436 15.1823,-196.744 6.6472,-180 -0.619047,-165.745 -3.35623,-156.487 6.6472,-144 52.4895,-86.7752 97.0571,-127.83 167.647,-108 170.781,-107.12 174.007,-106.157 177.239,-105.151"/>
<polygon fill="black" stroke="black" points="178.428,-108.445 186.87,-102.044 176.279,-101.783 178.428,-108.445"/>
</g>
<!-- initializeCli -->
<g id="node24" class="node"><title>initializeCli</title>
<ellipse fill="orange" stroke="orange" cx="217.647" cy="-162" rx="51.2893" ry="18"/>
<text text-anchor="middle" x="217.647" y="-157.8" font-family="Times,serif" font-size="14.00" fill="white">initializeCli</text>
</g>
<!-- initializeEngine&#45;&gt;initializeCli -->
<g id="edge22" class="edge"><title>initializeEngine&#45;&gt;initializeCli</title>
<path fill="none" stroke="black" d="M109.591,-217.811C130.4,-207.256 158.275,-193.116 180.501,-181.843"/>
<polygon fill="black" stroke="black" points="182.308,-184.85 189.643,-177.205 179.141,-178.607 182.308,-184.85"/>
</g>
<!-- initializeProject -->
<g id="node25" class="node"><title>initializeProject</title>
<ellipse fill="gray" stroke="gray" cx="81.6472" cy="-162" rx="66.143" ry="18"/>
<text text-anchor="middle" x="81.6472" y="-157.8" font-family="Times,serif" font-size="14.00" fill="white">initializeProject</text>
</g>
<!-- initializeEngine&#45;&gt;initializeProject -->
<g id="edge24" class="edge"><title>initializeEngine&#45;&gt;initializeProject</title>
<path fill="none" stroke="black" d="M80.1416,-215.697C80.362,-207.983 80.6268,-198.712 80.8726,-190.112"/>
<polygon fill="black" stroke="black" points="84.3714,-190.2 81.1585,-180.104 77.3742,-190 84.3714,-190.2"/>
</g>
<!-- initializeCli&#45;&gt;initialize -->
<g id="edge26" class="edge"><title>initializeCli&#45;&gt;initialize</title>
<path fill="none" stroke="black" d="M217.647,-143.697C217.647,-135.983 217.647,-126.712 217.647,-118.112"/>
<polygon fill="black" stroke="black" points="221.147,-118.104 217.647,-108.104 214.147,-118.104 221.147,-118.104"/>
</g>
<!-- initializeProject&#45;&gt;initialize -->
<g id="edge27" class="edge"><title>initializeProject&#45;&gt;initialize</title>
<path fill="none" stroke="black" d="M111.157,-145.811C132.211,-134.974 160.605,-120.36 182.779,-108.947"/>
<polygon fill="black" stroke="black" points="184.572,-111.96 191.862,-104.272 181.369,-105.736 184.572,-111.96"/>
</g>
<!-- initializeTest -->
<g id="node26" class="node"><title>initializeTest</title>
<ellipse fill="gray" stroke="gray" cx="219.647" cy="-234" rx="55.4807" ry="18"/>
<text text-anchor="middle" x="219.647" y="-229.8" font-family="Times,serif" font-size="14.00" fill="white">initializeTest</text>
</g>
<!-- initializeTest&#45;&gt;initializeCli -->
<g id="edge23" class="edge"><title>initializeTest&#45;&gt;initializeCli</title>
<path fill="none" stroke="black" d="M219.153,-215.697C218.932,-207.983 218.668,-198.712 218.422,-190.112"/>
<polygon fill="black" stroke="black" points="221.92,-190 218.136,-180.104 214.923,-190.2 221.92,-190"/>
</g>
<!-- polyrepo&#45;&gt;instantProjects -->
<g id="edge46" class="edge"><title>polyrepo&#45;&gt;instantProjects</title>
<path fill="none" stroke="black" d="M313.052,-71.6966C306.525,-63.3893 298.579,-53.2771 291.401,-44.1407"/>
<polygon fill="black" stroke="black" points="294.017,-41.8051 285.086,-36.1043 288.512,-46.1299 294.017,-41.8051"/>
</g>
<!-- stateAtom -->
<g id="node29" class="node"><title>stateAtom</title>
<ellipse fill="green" stroke="green" cx="1983.65" cy="-306" rx="46.1851" ry="18"/>
<text text-anchor="middle" x="1983.65" y="-301.8" font-family="Times,serif" font-size="14.00" fill="white">stateAtom</text>
</g>
<!-- stateChannel -->
<g id="node30" class="node"><title>stateChannel</title>
<ellipse fill="gray" stroke="gray" cx="2025.65" cy="-234" rx="55.1779" ry="18"/>
<text text-anchor="middle" x="2025.65" y="-229.8" font-family="Times,serif" font-size="14.00" fill="white">stateChannel</text>
</g>
<!-- stateAtom&#45;&gt;stateChannel -->
<g id="edge34" class="edge"><title>stateAtom&#45;&gt;stateChannel</title>
<path fill="none" stroke="black" d="M1993.6,-288.411C1998.55,-280.163 2004.64,-270.009 2010.18,-260.777"/>
<polygon fill="black" stroke="black" points="2013.33,-262.332 2015.47,-251.956 2007.33,-258.73 2013.33,-262.332"/>
</g>
<!-- portableState -->
<g id="node40" class="node"><title>portableState</title>
<polygon fill="none" stroke="black" points="1986.04,-180 1897.25,-180 1897.25,-144 1986.04,-144 1986.04,-180"/>
<text text-anchor="middle" x="1941.65" y="-157.8" font-family="Times,serif" font-size="14.00">portableState</text>
</g>
<!-- stateAtom&#45;&gt;portableState -->
<g id="edge40" class="edge"><title>stateAtom&#45;&gt;portableState</title>
<path fill="none" stroke="black" d="M1975.31,-288.146C1970.49,-277.892 1964.62,-264.419 1960.65,-252 1954.15,-231.718 1949.23,-208.121 1946.02,-190.322"/>
<polygon fill="black" stroke="black" points="1949.45,-189.583 1944.29,-180.327 1942.55,-190.777 1949.45,-189.583"/>
</g>
<!-- stateChannel&#45;&gt;portableState -->
<g id="edge41" class="edge"><title>stateChannel&#45;&gt;portableState</title>
<path fill="none" stroke="black" d="M2006.16,-216.765C1995.45,-207.839 1981.97,-196.601 1970.1,-186.711"/>
<polygon fill="black" stroke="black" points="1972.12,-183.837 1962.2,-180.124 1967.64,-189.215 1972.12,-183.837"/>
</g>
<!-- virtualHook -->
<g id="node31" class="node"><title>virtualHook</title>
<ellipse fill="orange" stroke="orange" cx="1559.65" cy="-306" rx="52.2663" ry="18"/>
<text text-anchor="middle" x="1559.65" y="-301.8" font-family="Times,serif" font-size="14.00" fill="white">virtualHook</text>
</g>
<!-- virtualValidation -->
<g id="node32" class="node"><title>virtualValidation</title>
<ellipse fill="gray" stroke="gray" cx="1559.65" cy="-234" rx="69.3116" ry="18"/>
<text text-anchor="middle" x="1559.65" y="-229.8" font-family="Times,serif" font-size="14.00" fill="white">virtualValidation</text>
</g>
<!-- virtualHook&#45;&gt;virtualValidation -->
<g id="edge35" class="edge"><title>virtualHook&#45;&gt;virtualValidation</title>
<path fill="none" stroke="black" d="M1559.65,-287.697C1559.65,-279.983 1559.65,-270.712 1559.65,-262.112"/>
<polygon fill="black" stroke="black" points="1563.15,-262.104 1559.65,-252.104 1556.15,-262.104 1563.15,-262.104"/>
</g>
<!-- composableForms -->
<g id="node39" class="node"><title>composableForms</title>
<polygon fill="none" stroke="black" points="1773.64,-180 1655.65,-180 1655.65,-144 1773.64,-144 1773.64,-180"/>
<text text-anchor="middle" x="1714.65" y="-157.8" font-family="Times,serif" font-size="14.00">composableForms</text>
</g>
<!-- virtualValidation&#45;&gt;composableForms -->
<g id="edge36" class="edge"><title>virtualValidation&#45;&gt;composableForms</title>
<path fill="none" stroke="black" d="M1592.52,-218.155C1614.33,-208.305 1643.29,-195.226 1667.54,-184.276"/>
<polygon fill="black" stroke="black" points="1669.24,-187.346 1676.92,-180.04 1666.36,-180.966 1669.24,-187.346"/>
</g>
<!-- virtualForm -->
<g id="node33" class="node"><title>virtualForm</title>
<ellipse fill="orange" stroke="orange" cx="1699.65" cy="-234" rx="52.0335" ry="18"/>
<text text-anchor="middle" x="1699.65" y="-229.8" font-family="Times,serif" font-size="14.00" fill="white">virtualForm</text>
</g>
<!-- virtualForm&#45;&gt;composableForms -->
<g id="edge38" class="edge"><title>virtualForm&#45;&gt;composableForms</title>
<path fill="none" stroke="black" d="M1703.36,-215.697C1705.01,-207.983 1706.99,-198.712 1708.84,-190.112"/>
<polygon fill="black" stroke="black" points="1712.31,-190.616 1710.98,-180.104 1705.46,-189.149 1712.31,-190.616"/>
</g>
<!-- jsonSchemaForm -->
<g id="node34" class="node"><title>jsonSchemaForm</title>
<ellipse fill="gray" stroke="gray" cx="1841.65" cy="-234" rx="72.0101" ry="18"/>
<text text-anchor="middle" x="1841.65" y="-229.8" font-family="Times,serif" font-size="14.00" fill="white">jsonSchemaForm</text>
</g>
<!-- jsonSchemaForm&#45;&gt;composableForms -->
<g id="edge39" class="edge"><title>jsonSchemaForm&#45;&gt;composableForms</title>
<path fill="none" stroke="black" d="M1813.15,-217.291C1795.85,-207.756 1773.51,-195.444 1754.48,-184.955"/>
<polygon fill="black" stroke="black" points="1756.17,-181.889 1745.72,-180.127 1752.79,-188.02 1756.17,-181.889"/>
</g>
<!-- sheetify -->
<g id="node35" class="node"><title>sheetify</title>
<ellipse fill="orange" stroke="orange" cx="1418.65" cy="-234" rx="38.1517" ry="18"/>
<text text-anchor="middle" x="1418.65" y="-229.8" font-family="Times,serif" font-size="14.00" fill="white">sheetify</text>
</g>
<!-- sheetifyNext -->
<g id="node36" class="node"><title>sheetifyNext</title>
<ellipse fill="gray" stroke="gray" cx="1418.65" cy="-162" rx="54.9384" ry="18"/>
<text text-anchor="middle" x="1418.65" y="-157.8" font-family="Times,serif" font-size="14.00" fill="white">sheetifyNext</text>
</g>
<!-- sheetify&#45;&gt;sheetifyNext -->
<g id="edge31" class="edge"><title>sheetify&#45;&gt;sheetifyNext</title>
<path fill="none" stroke="black" d="M1418.65,-215.697C1418.65,-207.983 1418.65,-198.712 1418.65,-190.112"/>
<polygon fill="black" stroke="black" points="1422.15,-190.104 1418.65,-180.104 1415.15,-190.104 1422.15,-190.104"/>
</g>
<!-- composableClients -->
<g id="node38" class="node"><title>composableClients</title>
<polygon fill="none" stroke="black" points="1552.55,-108 1430.74,-108 1430.74,-72 1552.55,-72 1552.55,-108"/>
<text text-anchor="middle" x="1491.65" y="-85.8" font-family="Times,serif" font-size="14.00">composableClients</text>
</g>
<!-- sheetify&#45;&gt;composableClients -->
<g id="edge32" class="edge"><title>sheetify&#45;&gt;composableClients</title>
<path fill="none" stroke="black" d="M1394.18,-220.077C1379.77,-210.99 1362.81,-197.363 1354.65,-180 1347.84,-165.521 1345.6,-157.198 1354.65,-144 1369.79,-121.901 1395.58,-109.014 1420.72,-101.5"/>
<polygon fill="black" stroke="black" points="1421.95,-104.793 1430.68,-98.7826 1420.11,-98.04 1421.95,-104.793"/>
</g>
<!-- sheetifyNext&#45;&gt;composableClients -->
<g id="edge33" class="edge"><title>sheetifyNext&#45;&gt;composableClients</title>
<path fill="none" stroke="black" d="M1435.58,-144.765C1444.71,-136.011 1456.16,-125.033 1466.32,-115.283"/>
<polygon fill="black" stroke="black" points="1468.99,-117.571 1473.79,-108.124 1464.15,-112.519 1468.99,-117.571"/>
</g>
<!-- inlineVirtualHtml -->
<g id="node37" class="node"><title>inlineVirtualHtml</title>
<ellipse fill="gray" stroke="gray" cx="1564.65" cy="-162" rx="72.4225" ry="18"/>
<text text-anchor="middle" x="1564.65" y="-157.8" font-family="Times,serif" font-size="14.00" fill="white">inlineVirtualHtml</text>
</g>
<!-- inlineVirtualHtml&#45;&gt;composableClients -->
<g id="edge37" class="edge"><title>inlineVirtualHtml&#45;&gt;composableClients</title>
<path fill="none" stroke="black" d="M1547.35,-144.411C1538.28,-135.712 1526.99,-124.893 1516.96,-115.271"/>
<polygon fill="black" stroke="black" points="1519.23,-112.596 1509.59,-108.201 1514.38,-117.648 1519.23,-112.596"/>
</g>
<!-- composableClients&#45;&gt;composableApplications -->
<g id="edge49" class="edge"><title>composableClients&#45;&gt;composableApplications</title>
<path fill="none" stroke="black" d="M1430.57,-75.2538C1383.71,-64.7055 1318.43,-50.012 1266.34,-38.2873"/>
<polygon fill="black" stroke="black" points="1266.96,-34.8406 1256.44,-36.0592 1265.43,-41.6697 1266.96,-34.8406"/>
</g>
<!-- composableForms&#45;&gt;composableClients -->
<g id="edge43" class="edge"><title>composableForms&#45;&gt;composableClients</title>
<path fill="none" stroke="black" d="M1660.38,-143.966C1628.82,-134.057 1588.86,-121.514 1555.75,-111.121"/>
<polygon fill="black" stroke="black" points="1556.75,-107.766 1546.16,-108.111 1554.65,-114.445 1556.75,-107.766"/>
</g>
<!-- portableState&#45;&gt;composableClients -->
<g id="edge44" class="edge"><title>portableState&#45;&gt;composableClients</title>
<path fill="none" stroke="black" d="M1896.85,-154.032C1818.56,-141.854 1656.27,-116.608 1562.57,-102.032"/>
<polygon fill="black" stroke="black" points="1563.03,-98.5613 1552.61,-100.483 1561.95,-105.478 1563.03,-98.5613"/>
</g>
<!-- portableBuildProcess&#45;&gt;instantProjects -->
<g id="edge47" class="edge"><title>portableBuildProcess&#45;&gt;instantProjects</title>
<path fill="none" stroke="black" d="M429.787,-71.9656C399.913,-61.9599 362.015,-49.2667 330.808,-38.8148"/>
<polygon fill="black" stroke="black" points="331.524,-35.3634 320.93,-35.5063 329.301,-42.001 331.524,-35.3634"/>
</g>
</g>
</svg>
