<?xml version="1.0" encoding="UTF-8" standalone="no"?>
<!DOCTYPE svg PUBLIC "-//W3C//DTD SVG 1.1//EN"
 "http://www.w3.org/Graphics/SVG/1.1/DTD/svg11.dtd">
<!-- Generated by graphviz version 2.36.0 (20140111.2315)
 -->
<!-- Title: planning Pages: 1 -->
<svg width="2095pt" height="404pt"
 viewBox="0.00 0.00 2095.00 404.00" xmlns="http://www.w3.org/2000/svg" xmlns:xlink="http://www.w3.org/1999/xlink">
<g id="graph0" class="graph" transform="scale(1 1) rotate(0) translate(4 400)">
<title>planning</title>
<polygon fill="white" stroke="none" points="-4,4 -4,-400 2091,-400 2091,4 -4,4"/>
<!-- hashMatch -->
<g id="node1" class="node"><title>hashMatch</title>
<ellipse fill="blue" stroke="blue" cx="433" cy="-306" rx="48.3649" ry="18"/>
<text text-anchor="middle" x="433" y="-301.8" font-family="Times,serif" font-size="14.00" fill="white">hashMatch</text>
</g>
<!-- wayfarerServer -->
<g id="node6" class="node"><title>wayfarerServer</title>
<ellipse fill="gray" stroke="gray" cx="421" cy="-234" rx="64.408" ry="18"/>
<text text-anchor="middle" x="421" y="-229.8" font-family="Times,serif" font-size="14.00" fill="white">wayfarerServer</text>
</g>
<!-- hashMatch&#45;&gt;wayfarerServer -->
<g id="edge3" class="edge"><title>hashMatch&#45;&gt;wayfarerServer</title>
<path fill="none" stroke="black" d="M430.034,-287.697C428.711,-279.983 427.122,-270.712 425.648,-262.112"/>
<polygon fill="black" stroke="black" points="429.072,-261.369 423.932,-252.104 422.172,-262.552 429.072,-261.369"/>
</g>
<!-- methodist -->
<g id="node2" class="node"><title>methodist</title>
<ellipse fill="green" stroke="green" cx="292" cy="-378" rx="44.4828" ry="18"/>
<text text-anchor="middle" x="292" y="-373.8" font-family="Times,serif" font-size="14.00" fill="white">methodist</text>
</g>
<!-- wayfarerToServer -->
<g id="node5" class="node"><title>wayfarerToServer</title>
<ellipse fill="orange" stroke="orange" cx="292" cy="-306" rx="73.2191" ry="18"/>
<text text-anchor="middle" x="292" y="-301.8" font-family="Times,serif" font-size="14.00" fill="white">wayfarerToServer</text>
</g>
<!-- methodist&#45;&gt;wayfarerToServer -->
<g id="edge1" class="edge"><title>methodist&#45;&gt;wayfarerToServer</title>
<path fill="none" stroke="black" d="M292,-359.697C292,-351.983 292,-342.712 292,-334.112"/>
<polygon fill="black" stroke="black" points="295.5,-334.104 292,-324.104 288.5,-334.104 295.5,-334.104"/>
</g>
<!-- wayfarer -->
<g id="node3" class="node"><title>wayfarer</title>
<ellipse fill="green" stroke="green" cx="454" cy="-378" rx="41.2878" ry="18"/>
<text text-anchor="middle" x="454" y="-373.8" font-family="Times,serif" font-size="14.00" fill="white">wayfarer</text>
</g>
<!-- wayfarer&#45;&gt;wayfarerToServer -->
<g id="edge2" class="edge"><title>wayfarer&#45;&gt;wayfarerToServer</title>
<path fill="none" stroke="black" d="M425.782,-364.807C401.022,-354.108 364.609,-338.374 336.021,-326.021"/>
<polygon fill="black" stroke="black" points="337.222,-322.728 326.654,-321.974 334.445,-329.153 337.222,-322.728"/>
</g>
<!-- wayfarer&#45;&gt;wayfarerServer -->
<g id="edge4" class="edge"><title>wayfarer&#45;&gt;wayfarerServer</title>
<path fill="none" stroke="black" d="M468.755,-360.936C483.463,-342.872 502.231,-312.818 490,-288 483.498,-274.808 471.961,-263.984 460.159,-255.635"/>
<polygon fill="black" stroke="black" points="461.864,-252.567 451.587,-249.994 458.017,-258.415 461.864,-252.567"/>
</g>
<!-- wayfarerToFs -->
<g id="node4" class="node"><title>wayfarerToFs</title>
<ellipse fill="orange" stroke="orange" cx="318" cy="-162" rx="59.1371" ry="18"/>
<text text-anchor="middle" x="318" y="-157.8" font-family="Times,serif" font-size="14.00" fill="white">wayfarerToFs</text>
</g>
<!-- portableBuildProcess -->
<g id="node37" class="node"><title>portableBuildProcess</title>
<polygon fill="none" stroke="black" points="373.32,-108 238.68,-108 238.68,-72 373.32,-72 373.32,-108"/>
<text text-anchor="middle" x="306" y="-85.8" font-family="Times,serif" font-size="14.00">portableBuildProcess</text>
</g>
<!-- wayfarerToFs&#45;&gt;portableBuildProcess -->
<g id="edge38" class="edge"><title>wayfarerToFs&#45;&gt;portableBuildProcess</title>
<path fill="none" stroke="black" d="M315.034,-143.697C313.711,-135.983 312.122,-126.712 310.648,-118.112"/>
<polygon fill="black" stroke="black" points="314.072,-117.369 308.932,-108.104 307.172,-118.552 314.072,-117.369"/>
</g>
<!-- wayfarerToServer&#45;&gt;wayfarerToFs -->
<g id="edge6" class="edge"><title>wayfarerToServer&#45;&gt;wayfarerToFs</title>
<path fill="none" stroke="black" d="M295.136,-287.871C299.567,-263.67 307.708,-219.211 312.984,-190.393"/>
<polygon fill="black" stroke="black" points="316.494,-190.656 314.853,-180.189 309.609,-189.395 316.494,-190.656"/>
</g>
<!-- wayfarerToServer&#45;&gt;wayfarerServer -->
<g id="edge5" class="edge"><title>wayfarerToServer&#45;&gt;wayfarerServer</title>
<path fill="none" stroke="black" d="M320.95,-289.291C339.503,-279.223 363.762,-266.06 383.746,-255.216"/>
<polygon fill="black" stroke="black" points="385.471,-258.262 392.591,-250.416 382.132,-252.109 385.471,-258.262"/>
</g>
<!-- wayfarerServer&#45;&gt;wayfarerToFs -->
<g id="edge7" class="edge"><title>wayfarerServer&#45;&gt;wayfarerToFs</title>
<path fill="none" stroke="black" d="M397.628,-217.116C383.405,-207.45 365.054,-194.978 349.553,-184.444"/>
<polygon fill="black" stroke="black" points="351.518,-181.547 341.28,-178.821 347.583,-187.337 351.518,-181.547"/>
</g>
<!-- preConfiguredAccountDown -->
<g id="node13" class="node"><title>preConfiguredAccountDown</title>
<ellipse fill="gray" stroke="gray" cx="560" cy="-162" rx="112.156" ry="18"/>
<text text-anchor="middle" x="560" y="-157.8" font-family="Times,serif" font-size="14.00" fill="white">preConfiguredAccountDown</text>
</g>
<!-- wayfarerServer&#45;&gt;preConfiguredAccountDown -->
<g id="edge15" class="edge"><title>wayfarerServer&#45;&gt;preConfiguredAccountDown</title>
<path fill="none" stroke="black" d="M450.819,-217.983C470.502,-208.071 496.572,-194.942 518.301,-184"/>
<polygon fill="black" stroke="black" points="519.959,-187.083 527.316,-179.46 516.81,-180.831 519.959,-187.083"/>
</g>
<!-- composableServers -->
<g id="node16" class="node"><title>composableServers</title>
<polygon fill="none" stroke="black" points="763.142,-108 638.858,-108 638.858,-72 763.142,-72 763.142,-108"/>
<text text-anchor="middle" x="701" y="-85.8" font-family="Times,serif" font-size="14.00">composableServers</text>
</g>
<!-- wayfarerServer&#45;&gt;composableServers -->
<g id="edge14" class="edge"><title>wayfarerServer&#45;&gt;composableServers</title>
<path fill="none" stroke="black" d="M419.075,-215.696C417.879,-195.628 419.297,-162.893 438,-144 464.142,-117.592 559.866,-103.514 628.278,-96.6544"/>
<polygon fill="black" stroke="black" points="628.969,-100.104 638.585,-95.6545 628.293,-93.1366 628.969,-100.104"/>
</g>
<!-- bodyParserStream -->
<g id="node7" class="node"><title>bodyParserStream</title>
<ellipse fill="gray" stroke="gray" cx="701" cy="-234" rx="74.415" ry="18"/>
<text text-anchor="middle" x="701" y="-229.8" font-family="Times,serif" font-size="14.00" fill="white">bodyParserStream</text>
</g>
<!-- streamingLogic -->
<g id="node15" class="node"><title>streamingLogic</title>
<polygon fill="none" stroke="black" points="917.397,-180 814.603,-180 814.603,-144 917.397,-144 917.397,-180"/>
<text text-anchor="middle" x="866" y="-157.8" font-family="Times,serif" font-size="14.00">streamingLogic</text>
</g>
<!-- bodyParserStream&#45;&gt;streamingLogic -->
<g id="edge10" class="edge"><title>bodyParserStream&#45;&gt;streamingLogic</title>
<path fill="none" stroke="black" d="M736.397,-217.983C759.758,-208.073 790.696,-194.947 816.486,-184.006"/>
<polygon fill="black" stroke="black" points="817.892,-187.211 825.731,-180.084 815.159,-180.767 817.892,-187.211"/>
</g>
<!-- levelWriteStream -->
<g id="node8" class="node"><title>levelWriteStream</title>
<ellipse fill="gray" stroke="gray" cx="866" cy="-234" rx="72.1851" ry="18"/>
<text text-anchor="middle" x="866" y="-229.8" font-family="Times,serif" font-size="14.00" fill="white">levelWriteStream</text>
</g>
<!-- levelWriteStream&#45;&gt;streamingLogic -->
<g id="edge11" class="edge"><title>levelWriteStream&#45;&gt;streamingLogic</title>
<path fill="none" stroke="black" d="M866,-215.697C866,-207.983 866,-198.712 866,-190.112"/>
<polygon fill="black" stroke="black" points="869.5,-190.104 866,-180.104 862.5,-190.104 869.5,-190.104"/>
</g>
<!-- boleStream -->
<g id="node9" class="node"><title>boleStream</title>
<ellipse fill="green" stroke="green" cx="1007" cy="-234" rx="50.0733" ry="18"/>
<text text-anchor="middle" x="1007" y="-229.8" font-family="Times,serif" font-size="14.00" fill="white">boleStream</text>
</g>
<!-- boleStream&#45;&gt;streamingLogic -->
<g id="edge18" class="edge"><title>boleStream&#45;&gt;streamingLogic</title>
<path fill="none" stroke="black" d="M978.805,-219.003C958.957,-209.149 932.01,-195.771 909.43,-184.561"/>
<polygon fill="black" stroke="black" points="910.89,-181.378 900.376,-180.066 907.777,-187.648 910.89,-181.378"/>
</g>
<!-- httpNdjson -->
<g id="node10" class="node"><title>httpNdjson</title>
<ellipse fill="green" stroke="green" cx="1007" cy="-306" rx="49.1222" ry="18"/>
<text text-anchor="middle" x="1007" y="-301.8" font-family="Times,serif" font-size="14.00" fill="white">httpNdjson</text>
</g>
<!-- httpNdjson&#45;&gt;boleStream -->
<g id="edge9" class="edge"><title>httpNdjson&#45;&gt;boleStream</title>
<path fill="none" stroke="black" d="M1007,-287.697C1007,-279.983 1007,-270.712 1007,-262.112"/>
<polygon fill="black" stroke="black" points="1010.5,-262.104 1007,-252.104 1003.5,-262.104 1010.5,-262.104"/>
</g>
<!-- httpResponseStream -->
<g id="node11" class="node"><title>httpResponseStream</title>
<ellipse fill="gray" stroke="gray" cx="1007" cy="-378" rx="82.2173" ry="18"/>
<text text-anchor="middle" x="1007" y="-373.8" font-family="Times,serif" font-size="14.00" fill="white">httpResponseStream</text>
</g>
<!-- httpResponseStream&#45;&gt;httpNdjson -->
<g id="edge8" class="edge"><title>httpResponseStream&#45;&gt;httpNdjson</title>
<path fill="none" stroke="black" d="M1007,-359.697C1007,-351.983 1007,-342.712 1007,-334.112"/>
<polygon fill="black" stroke="black" points="1010.5,-334.104 1007,-324.104 1003.5,-334.104 1010.5,-334.104"/>
</g>
<!-- serverError -->
<g id="node12" class="node"><title>serverError</title>
<ellipse fill="gray" stroke="gray" cx="558" cy="-234" rx="50.054" ry="18"/>
<text text-anchor="middle" x="558" y="-229.8" font-family="Times,serif" font-size="14.00" fill="white">serverError</text>
</g>
<!-- serverError&#45;&gt;preConfiguredAccountDown -->
<g id="edge16" class="edge"><title>serverError&#45;&gt;preConfiguredAccountDown</title>
<path fill="none" stroke="black" d="M558.494,-215.697C558.715,-207.983 558.98,-198.712 559.225,-190.112"/>
<polygon fill="black" stroke="black" points="562.724,-190.2 559.511,-180.104 555.727,-190 562.724,-190.2"/>
</g>
<!-- serverError&#45;&gt;composableServers -->
<g id="edge13" class="edge"><title>serverError&#45;&gt;composableServers</title>
<path fill="none" stroke="black" d="M594.341,-221.447C626.279,-210.586 669.42,-193.959 681,-180 695.266,-162.802 699.882,-137.527 701.152,-118.301"/>
<polygon fill="black" stroke="black" points="704.659,-118.191 701.557,-108.061 697.664,-117.914 704.659,-118.191"/>
</g>
<!-- preConfiguredAccountDown&#45;&gt;composableServers -->
<g id="edge17" class="edge"><title>preConfiguredAccountDown&#45;&gt;composableServers</title>
<path fill="none" stroke="black" d="M592.703,-144.765C611.978,-135.195 636.606,-122.969 657.504,-112.594"/>
<polygon fill="black" stroke="black" points="659.107,-115.706 666.508,-108.124 655.994,-109.436 659.107,-115.706"/>
</g>
<!-- headerStream -->
<g id="node14" class="node"><title>headerStream</title>
<ellipse fill="gray" stroke="gray" cx="1134" cy="-234" rx="58.5794" ry="18"/>
<text text-anchor="middle" x="1134" y="-229.8" font-family="Times,serif" font-size="14.00" fill="white">headerStream</text>
</g>
<!-- headerStream&#45;&gt;streamingLogic -->
<g id="edge12" class="edge"><title>headerStream&#45;&gt;streamingLogic</title>
<path fill="none" stroke="black" d="M1090.94,-221.753C1046.69,-210.195 977.389,-192.094 927.398,-179.037"/>
<polygon fill="black" stroke="black" points="928.231,-175.637 917.671,-176.496 926.461,-182.41 928.231,-175.637"/>
</g>
<!-- streamingLogic&#45;&gt;composableServers -->
<g id="edge19" class="edge"><title>streamingLogic&#45;&gt;composableServers</title>
<path fill="none" stroke="black" d="M825.636,-143.876C802.98,-134.264 774.527,-122.193 750.53,-112.013"/>
<polygon fill="black" stroke="black" points="751.805,-108.752 741.232,-108.068 749.071,-115.196 751.805,-108.752"/>
</g>
<!-- composableApplications -->
<g id="node36" class="node"><title>composableApplications</title>
<polygon fill="none" stroke="black" points="1088.31,-36 933.689,-36 933.689,-0 1088.31,-0 1088.31,-36"/>
<text text-anchor="middle" x="1011" y="-13.8" font-family="Times,serif" font-size="14.00">composableApplications</text>
</g>
<!-- composableServers&#45;&gt;composableApplications -->
<g id="edge41" class="edge"><title>composableServers&#45;&gt;composableApplications</title>
<path fill="none" stroke="black" d="M763.36,-74.9187C810.035,-64.3792 874.412,-49.8425 925.828,-38.2323"/>
<polygon fill="black" stroke="black" points="926.616,-41.6426 935.6,-36.0259 925.074,-34.8145 926.616,-41.6426"/>
</g>
<!-- gherkinStream -->
<g id="node17" class="node"><title>gherkinStream</title>
<ellipse fill="green" stroke="green" cx="2009" cy="-378" rx="62.2554" ry="18"/>
<text text-anchor="middle" x="2009" y="-373.8" font-family="Times,serif" font-size="14.00" fill="white">gherkinStream</text>
</g>
<!-- cukeTap -->
<g id="node18" class="node"><title>cukeTap</title>
<ellipse fill="gray" stroke="gray" cx="2009" cy="-306" rx="39.3988" ry="18"/>
<text text-anchor="middle" x="2009" y="-301.8" font-family="Times,serif" font-size="14.00" fill="white">cukeTap</text>
</g>
<!-- gherkinStream&#45;&gt;cukeTap -->
<g id="edge20" class="edge"><title>gherkinStream&#45;&gt;cukeTap</title>
<path fill="none" stroke="black" d="M2009,-359.697C2009,-351.983 2009,-342.712 2009,-334.112"/>
<polygon fill="black" stroke="black" points="2012.5,-334.104 2009,-324.104 2005.5,-334.104 2012.5,-334.104"/>
</g>
<!-- gherkinDotMashup -->
<g id="node19" class="node"><title>gherkinDotMashup</title>
<ellipse fill="gray" stroke="gray" cx="2009" cy="-234" rx="78.3226" ry="18"/>
<text text-anchor="middle" x="2009" y="-229.8" font-family="Times,serif" font-size="14.00" fill="white">gherkinDotMashup</text>
</g>
<!-- cukeTap&#45;&gt;gherkinDotMashup -->
<g id="edge21" class="edge"><title>cukeTap&#45;&gt;gherkinDotMashup</title>
<path fill="none" stroke="black" d="M2009,-287.697C2009,-279.983 2009,-270.712 2009,-262.112"/>
<polygon fill="black" stroke="black" points="2012.5,-262.104 2009,-252.104 2005.5,-262.104 2012.5,-262.104"/>
</g>
<!-- testableThoughts -->
<g id="node38" class="node"><title>testableThoughts</title>
<polygon fill="none" stroke="black" points="2064.24,-180 1953.76,-180 1953.76,-144 2064.24,-144 2064.24,-180"/>
<text text-anchor="middle" x="2009" y="-157.8" font-family="Times,serif" font-size="14.00">testableThoughts</text>
</g>
<!-- gherkinDotMashup&#45;&gt;testableThoughts -->
<g id="edge35" class="edge"><title>gherkinDotMashup&#45;&gt;testableThoughts</title>
<path fill="none" stroke="black" d="M2009,-215.697C2009,-207.983 2009,-198.712 2009,-190.112"/>
<polygon fill="black" stroke="black" points="2012.5,-190.104 2009,-180.104 2005.5,-190.104 2012.5,-190.104"/>
</g>
<!-- autoNpmInstall -->
<g id="node20" class="node"><title>autoNpmInstall</title>
<ellipse fill="gray" stroke="gray" cx="65" cy="-90" rx="65.1857" ry="18"/>
<text text-anchor="middle" x="65" y="-85.8" font-family="Times,serif" font-size="14.00" fill="white">autoNpmInstall</text>
</g>
<!-- instantProjects -->
<g id="node22" class="node"><title>instantProjects</title>
<polygon fill="none" stroke="black" points="230.326,-36 131.674,-36 131.674,-0 230.326,-0 230.326,-36"/>
<text text-anchor="middle" x="181" y="-13.8" font-family="Times,serif" font-size="14.00">instantProjects</text>
</g>
<!-- autoNpmInstall&#45;&gt;instantProjects -->
<g id="edge22" class="edge"><title>autoNpmInstall&#45;&gt;instantProjects</title>
<path fill="none" stroke="black" d="M90.7442,-73.4647C106.318,-64.0666 126.442,-51.9231 143.734,-41.4882"/>
<polygon fill="black" stroke="black" points="145.726,-44.3741 152.479,-36.2108 142.109,-38.3808 145.726,-44.3741"/>
</g>
<!-- polyrepoUpdate -->
<g id="node21" class="node"><title>polyrepoUpdate</title>
<ellipse fill="orange" stroke="orange" cx="174" cy="-162" rx="67.1198" ry="18"/>
<text text-anchor="middle" x="174" y="-157.8" font-family="Times,serif" font-size="14.00" fill="white">polyrepoUpdate</text>
</g>
<!-- polyrepo -->
<g id="node23" class="node"><title>polyrepo</title>
<polygon fill="none" stroke="black" points="213.326,-108 148.674,-108 148.674,-72 213.326,-72 213.326,-108"/>
<text text-anchor="middle" x="181" y="-85.8" font-family="Times,serif" font-size="14.00">polyrepo</text>
</g>
<!-- polyrepoUpdate&#45;&gt;polyrepo -->
<g id="edge23" class="edge"><title>polyrepoUpdate&#45;&gt;polyrepo</title>
<path fill="none" stroke="black" d="M175.73,-143.697C176.502,-135.983 177.429,-126.712 178.289,-118.112"/>
<polygon fill="black" stroke="black" points="181.777,-118.403 179.29,-108.104 174.812,-117.706 181.777,-118.403"/>
</g>
<!-- polyrepo&#45;&gt;instantProjects -->
<g id="edge39" class="edge"><title>polyrepo&#45;&gt;instantProjects</title>
<path fill="none" stroke="black" d="M181,-71.6966C181,-63.9827 181,-54.7125 181,-46.1124"/>
<polygon fill="black" stroke="black" points="184.5,-46.1043 181,-36.1043 177.5,-46.1044 184.5,-46.1043"/>
</g>
<!-- stateAtom -->
<g id="node24" class="node"><title>stateAtom</title>
<ellipse fill="green" stroke="green" cx="1814" cy="-306" rx="46.1851" ry="18"/>
<text text-anchor="middle" x="1814" y="-301.8" font-family="Times,serif" font-size="14.00" fill="white">stateAtom</text>
</g>
<!-- stateChannel -->
<g id="node25" class="node"><title>stateChannel</title>
<ellipse fill="gray" stroke="gray" cx="1856" cy="-234" rx="55.1779" ry="18"/>
<text text-anchor="middle" x="1856" y="-229.8" font-family="Times,serif" font-size="14.00" fill="white">stateChannel</text>
</g>
<!-- stateAtom&#45;&gt;stateChannel -->
<g id="edge27" class="edge"><title>stateAtom&#45;&gt;stateChannel</title>
<path fill="none" stroke="black" d="M1823.95,-288.411C1828.9,-280.163 1834.99,-270.009 1840.53,-260.777"/>
<polygon fill="black" stroke="black" points="1843.68,-262.332 1845.83,-251.956 1837.68,-258.73 1843.68,-262.332"/>
</g>
<!-- portableState -->
<g id="node35" class="node"><title>portableState</title>
<polygon fill="none" stroke="black" points="1816.4,-180 1727.6,-180 1727.6,-144 1816.4,-144 1816.4,-180"/>
<text text-anchor="middle" x="1772" y="-157.8" font-family="Times,serif" font-size="14.00">portableState</text>
</g>
<!-- stateAtom&#45;&gt;portableState -->
<g id="edge33" class="edge"><title>stateAtom&#45;&gt;portableState</title>
<path fill="none" stroke="black" d="M1805.66,-288.146C1800.85,-277.892 1794.98,-264.419 1791,-252 1784.51,-231.718 1779.58,-208.121 1776.38,-190.322"/>
<polygon fill="black" stroke="black" points="1779.8,-189.583 1774.65,-180.327 1772.9,-190.777 1779.8,-189.583"/>
</g>
<!-- stateChannel&#45;&gt;portableState -->
<g id="edge34" class="edge"><title>stateChannel&#45;&gt;portableState</title>
<path fill="none" stroke="black" d="M1836.52,-216.765C1825.81,-207.839 1812.32,-196.601 1800.45,-186.711"/>
<polygon fill="black" stroke="black" points="1802.47,-183.837 1792.55,-180.124 1797.99,-189.215 1802.47,-183.837"/>
</g>
<!-- virtualHook -->
<g id="node26" class="node"><title>virtualHook</title>
<ellipse fill="orange" stroke="orange" cx="1390" cy="-306" rx="52.2663" ry="18"/>
<text text-anchor="middle" x="1390" y="-301.8" font-family="Times,serif" font-size="14.00" fill="white">virtualHook</text>
</g>
<!-- virtualValidation -->
<g id="node27" class="node"><title>virtualValidation</title>
<ellipse fill="gray" stroke="gray" cx="1390" cy="-234" rx="69.3116" ry="18"/>
<text text-anchor="middle" x="1390" y="-229.8" font-family="Times,serif" font-size="14.00" fill="white">virtualValidation</text>
</g>
<!-- virtualHook&#45;&gt;virtualValidation -->
<g id="edge28" class="edge"><title>virtualHook&#45;&gt;virtualValidation</title>
<path fill="none" stroke="black" d="M1390,-287.697C1390,-279.983 1390,-270.712 1390,-262.112"/>
<polygon fill="black" stroke="black" points="1393.5,-262.104 1390,-252.104 1386.5,-262.104 1393.5,-262.104"/>
</g>
<!-- composableForms -->
<g id="node34" class="node"><title>composableForms</title>
<polygon fill="none" stroke="black" points="1603.99,-180 1486.01,-180 1486.01,-144 1603.99,-144 1603.99,-180"/>
<text text-anchor="middle" x="1545" y="-157.8" font-family="Times,serif" font-size="14.00">composableForms</text>
</g>
<!-- virtualValidation&#45;&gt;composableForms -->
<g id="edge29" class="edge"><title>virtualValidation&#45;&gt;composableForms</title>
<path fill="none" stroke="black" d="M1422.87,-218.155C1444.68,-208.305 1473.64,-195.226 1497.89,-184.276"/>
<polygon fill="black" stroke="black" points="1499.6,-187.346 1507.27,-180.04 1496.71,-180.966 1499.6,-187.346"/>
</g>
<!-- virtualForm -->
<g id="node28" class="node"><title>virtualForm</title>
<ellipse fill="orange" stroke="orange" cx="1530" cy="-234" rx="52.0335" ry="18"/>
<text text-anchor="middle" x="1530" y="-229.8" font-family="Times,serif" font-size="14.00" fill="white">virtualForm</text>
</g>
<!-- virtualForm&#45;&gt;composableForms -->
<g id="edge31" class="edge"><title>virtualForm&#45;&gt;composableForms</title>
<path fill="none" stroke="black" d="M1533.71,-215.697C1535.36,-207.983 1537.35,-198.712 1539.19,-190.112"/>
<polygon fill="black" stroke="black" points="1542.66,-190.616 1541.33,-180.104 1535.82,-189.149 1542.66,-190.616"/>
</g>
<!-- jsonSchemaForm -->
<g id="node29" class="node"><title>jsonSchemaForm</title>
<ellipse fill="gray" stroke="gray" cx="1672" cy="-234" rx="72.0101" ry="18"/>
<text text-anchor="middle" x="1672" y="-229.8" font-family="Times,serif" font-size="14.00" fill="white">jsonSchemaForm</text>
</g>
<!-- jsonSchemaForm&#45;&gt;composableForms -->
<g id="edge32" class="edge"><title>jsonSchemaForm&#45;&gt;composableForms</title>
<path fill="none" stroke="black" d="M1643.5,-217.291C1626.2,-207.756 1603.86,-195.444 1584.83,-184.955"/>
<polygon fill="black" stroke="black" points="1586.52,-181.889 1576.07,-180.127 1583.14,-188.02 1586.52,-181.889"/>
</g>
<!-- sheetify -->
<g id="node30" class="node"><title>sheetify</title>
<ellipse fill="orange" stroke="orange" cx="1249" cy="-234" rx="38.1517" ry="18"/>
<text text-anchor="middle" x="1249" y="-229.8" font-family="Times,serif" font-size="14.00" fill="white">sheetify</text>
</g>
<!-- sheetifyNext -->
<g id="node31" class="node"><title>sheetifyNext</title>
<ellipse fill="gray" stroke="gray" cx="1249" cy="-162" rx="54.9384" ry="18"/>
<text text-anchor="middle" x="1249" y="-157.8" font-family="Times,serif" font-size="14.00" fill="white">sheetifyNext</text>
</g>
<!-- sheetify&#45;&gt;sheetifyNext -->
<g id="edge24" class="edge"><title>sheetify&#45;&gt;sheetifyNext</title>
<path fill="none" stroke="black" d="M1249,-215.697C1249,-207.983 1249,-198.712 1249,-190.112"/>
<polygon fill="black" stroke="black" points="1252.5,-190.104 1249,-180.104 1245.5,-190.104 1252.5,-190.104"/>
</g>
<!-- composableClients -->
<g id="node33" class="node"><title>composableClients</title>
<polygon fill="none" stroke="black" points="1382.9,-108 1261.1,-108 1261.1,-72 1382.9,-72 1382.9,-108"/>
<text text-anchor="middle" x="1322" y="-85.8" font-family="Times,serif" font-size="14.00">composableClients</text>
</g>
<!-- sheetify&#45;&gt;composableClients -->
<g id="edge25" class="edge"><title>sheetify&#45;&gt;composableClients</title>
<path fill="none" stroke="black" d="M1224.53,-220.077C1210.12,-210.99 1193.17,-197.363 1185,-180 1178.19,-165.521 1175.95,-157.198 1185,-144 1200.15,-121.901 1225.93,-109.014 1251.08,-101.5"/>
<polygon fill="black" stroke="black" points="1252.3,-104.793 1261.03,-98.7826 1250.46,-98.04 1252.3,-104.793"/>
</g>
<!-- sheetifyNext&#45;&gt;composableClients -->
<g id="edge26" class="edge"><title>sheetifyNext&#45;&gt;composableClients</title>
<path fill="none" stroke="black" d="M1265.93,-144.765C1275.06,-136.011 1286.51,-125.033 1296.68,-115.283"/>
<polygon fill="black" stroke="black" points="1299.35,-117.571 1304.14,-108.124 1294.5,-112.519 1299.35,-117.571"/>
</g>
<!-- inlineVirtualHtml -->
<g id="node32" class="node"><title>inlineVirtualHtml</title>
<ellipse fill="gray" stroke="gray" cx="1395" cy="-162" rx="72.4225" ry="18"/>
<text text-anchor="middle" x="1395" y="-157.8" font-family="Times,serif" font-size="14.00" fill="white">inlineVirtualHtml</text>
</g>
<!-- inlineVirtualHtml&#45;&gt;composableClients -->
<g id="edge30" class="edge"><title>inlineVirtualHtml&#45;&gt;composableClients</title>
<path fill="none" stroke="black" d="M1377.7,-144.411C1368.63,-135.712 1357.35,-124.893 1347.31,-115.271"/>
<polygon fill="black" stroke="black" points="1349.58,-112.596 1339.94,-108.201 1344.73,-117.648 1349.58,-112.596"/>
</g>
<!-- composableClients&#45;&gt;composableApplications -->
<g id="edge42" class="edge"><title>composableClients&#45;&gt;composableApplications</title>
<path fill="none" stroke="black" d="M1260.93,-75.2538C1214.06,-64.7055 1148.78,-50.012 1096.69,-38.2873"/>
<polygon fill="black" stroke="black" points="1097.32,-34.8406 1086.79,-36.0592 1095.78,-41.6697 1097.32,-34.8406"/>
</g>
<!-- composableForms&#45;&gt;composableClients -->
<g id="edge36" class="edge"><title>composableForms&#45;&gt;composableClients</title>
<path fill="none" stroke="black" d="M1490.73,-143.966C1459.17,-134.057 1419.21,-121.514 1386.1,-111.121"/>
<polygon fill="black" stroke="black" points="1387.1,-107.766 1376.51,-108.111 1385,-114.445 1387.1,-107.766"/>
</g>
<!-- portableState&#45;&gt;composableClients -->
<g id="edge37" class="edge"><title>portableState&#45;&gt;composableClients</title>
<path fill="none" stroke="black" d="M1727.21,-154.032C1648.92,-141.854 1486.62,-116.608 1392.92,-102.032"/>
<polygon fill="black" stroke="black" points="1393.38,-98.5613 1382.96,-100.483 1392.3,-105.478 1393.38,-98.5613"/>
</g>
<!-- portableBuildProcess&#45;&gt;instantProjects -->
<g id="edge40" class="edge"><title>portableBuildProcess&#45;&gt;instantProjects</title>
<path fill="none" stroke="black" d="M275.422,-71.8761C258.926,-62.6388 238.376,-51.1308 220.664,-41.2116"/>
<polygon fill="black" stroke="black" points="222.131,-38.0221 211.696,-36.1898 218.711,-44.1296 222.131,-38.0221"/>
</g>
</g>
</svg>
