<?xml version="1.0" encoding="UTF-8" standalone="no"?>
<!DOCTYPE svg PUBLIC "-//W3C//DTD SVG 1.1//EN"
 "http://www.w3.org/Graphics/SVG/1.1/DTD/svg11.dtd">
<!-- Generated by graphviz version 2.36.0 (20140111.2315)
 -->
<!-- Title: planning Pages: 1 -->
<svg width="2346pt" height="404pt"
 viewBox="0.00 0.00 2345.65 404.00" xmlns="http://www.w3.org/2000/svg" xmlns:xlink="http://www.w3.org/1999/xlink">
<g id="graph0" class="graph" transform="scale(1 1) rotate(0) translate(4 400)">
<title>planning</title>
<polygon fill="white" stroke="none" points="-4,4 -4,-400 2341.65,-400 2341.65,4 -4,4"/>
<!-- hashMatch -->
<g id="node1" class="node"><title>hashMatch</title>
<ellipse fill="blue" stroke="blue" cx="608.647" cy="-306" rx="48.3649" ry="18"/>
<text text-anchor="middle" x="608.647" y="-301.8" font-family="Times,serif" font-size="14.00" fill="white">hashMatch</text>
</g>
<!-- wayfarerServer -->
<g id="node6" class="node"><title>wayfarerServer</title>
<ellipse fill="gray" stroke="gray" cx="602.647" cy="-234" rx="64.408" ry="18"/>
<text text-anchor="middle" x="602.647" y="-229.8" font-family="Times,serif" font-size="14.00" fill="white">wayfarerServer</text>
</g>
<!-- hashMatch&#45;&gt;wayfarerServer -->
<g id="edge3" class="edge"><title>hashMatch&#45;&gt;wayfarerServer</title>
<path fill="none" stroke="black" d="M607.164,-287.697C606.503,-279.983 605.708,-270.712 604.971,-262.112"/>
<polygon fill="black" stroke="black" points="608.455,-261.769 604.113,-252.104 601.48,-262.367 608.455,-261.769"/>
</g>
<!-- methodist -->
<g id="node2" class="node"><title>methodist</title>
<ellipse fill="green" stroke="green" cx="467.647" cy="-378" rx="44.4828" ry="18"/>
<text text-anchor="middle" x="467.647" y="-373.8" font-family="Times,serif" font-size="14.00" fill="white">methodist</text>
</g>
<!-- wayfarerToServer -->
<g id="node5" class="node"><title>wayfarerToServer</title>
<ellipse fill="orange" stroke="orange" cx="467.647" cy="-306" rx="73.2191" ry="18"/>
<text text-anchor="middle" x="467.647" y="-301.8" font-family="Times,serif" font-size="14.00" fill="white">wayfarerToServer</text>
</g>
<!-- methodist&#45;&gt;wayfarerToServer -->
<g id="edge1" class="edge"><title>methodist&#45;&gt;wayfarerToServer</title>
<path fill="none" stroke="black" d="M467.647,-359.697C467.647,-351.983 467.647,-342.712 467.647,-334.112"/>
<polygon fill="black" stroke="black" points="471.147,-334.104 467.647,-324.104 464.147,-334.104 471.147,-334.104"/>
</g>
<!-- wayfarer -->
<g id="node3" class="node"><title>wayfarer</title>
<ellipse fill="green" stroke="green" cx="628.647" cy="-378" rx="41.2878" ry="18"/>
<text text-anchor="middle" x="628.647" y="-373.8" font-family="Times,serif" font-size="14.00" fill="white">wayfarer</text>
</g>
<!-- wayfarer&#45;&gt;wayfarerToServer -->
<g id="edge2" class="edge"><title>wayfarer&#45;&gt;wayfarerToServer</title>
<path fill="none" stroke="black" d="M600.234,-364.647C575.659,-353.962 539.735,-338.343 511.478,-326.057"/>
<polygon fill="black" stroke="black" points="512.782,-322.807 502.216,-322.03 509.991,-329.227 512.782,-322.807"/>
</g>
<!-- wayfarer&#45;&gt;wayfarerServer -->
<g id="edge4" class="edge"><title>wayfarer&#45;&gt;wayfarerServer</title>
<path fill="none" stroke="black" d="M643.498,-361.072C658.333,-343.128 677.37,-313.182 665.647,-288 659.783,-275.403 649.287,-264.73 638.523,-256.336"/>
<polygon fill="black" stroke="black" points="640.458,-253.416 630.311,-250.368 636.343,-259.079 640.458,-253.416"/>
</g>
<!-- wayfarerToFs -->
<g id="node4" class="node"><title>wayfarerToFs</title>
<ellipse fill="orange" stroke="orange" cx="498.647" cy="-162" rx="59.1371" ry="18"/>
<text text-anchor="middle" x="498.647" y="-157.8" font-family="Times,serif" font-size="14.00" fill="white">wayfarerToFs</text>
</g>
<!-- portableBuildProcess -->
<g id="node41" class="node"><title>portableBuildProcess</title>
<polygon fill="none" stroke="black" points="553.967,-108 419.327,-108 419.327,-72 553.967,-72 553.967,-108"/>
<text text-anchor="middle" x="486.647" y="-85.8" font-family="Times,serif" font-size="14.00">portableBuildProcess</text>
</g>
<!-- wayfarerToFs&#45;&gt;portableBuildProcess -->
<g id="edge44" class="edge"><title>wayfarerToFs&#45;&gt;portableBuildProcess</title>
<path fill="none" stroke="black" d="M495.681,-143.697C494.359,-135.983 492.769,-126.712 491.295,-118.112"/>
<polygon fill="black" stroke="black" points="494.719,-117.369 489.579,-108.104 487.819,-118.552 494.719,-117.369"/>
</g>
<!-- wayfarerToServer&#45;&gt;wayfarerToFs -->
<g id="edge6" class="edge"><title>wayfarerToServer&#45;&gt;wayfarerToFs</title>
<path fill="none" stroke="black" d="M471.387,-287.871C476.693,-263.564 486.461,-218.819 492.75,-190.013"/>
<polygon fill="black" stroke="black" points="496.181,-190.706 494.895,-180.189 489.342,-189.213 496.181,-190.706"/>
</g>
<!-- wayfarerToServer&#45;&gt;wayfarerServer -->
<g id="edge5" class="edge"><title>wayfarerToServer&#45;&gt;wayfarerServer</title>
<path fill="none" stroke="black" d="M497.608,-289.465C517.231,-279.29 543.061,-265.897 564.196,-254.938"/>
<polygon fill="black" stroke="black" points="565.968,-257.961 573.235,-250.251 562.746,-251.747 565.968,-257.961"/>
</g>
<!-- wayfarerServer&#45;&gt;wayfarerToFs -->
<g id="edge7" class="edge"><title>wayfarerServer&#45;&gt;wayfarerToFs</title>
<path fill="none" stroke="black" d="M579.048,-217.116C564.586,-207.382 545.896,-194.802 530.177,-184.222"/>
<polygon fill="black" stroke="black" points="532.045,-181.26 521.795,-178.58 528.136,-187.067 532.045,-181.26"/>
</g>
<!-- preConfiguredAccountDown -->
<g id="node13" class="node"><title>preConfiguredAccountDown</title>
<ellipse fill="gray" stroke="gray" cx="741.647" cy="-162" rx="112.156" ry="18"/>
<text text-anchor="middle" x="741.647" y="-157.8" font-family="Times,serif" font-size="14.00" fill="white">preConfiguredAccountDown</text>
</g>
<!-- wayfarerServer&#45;&gt;preConfiguredAccountDown -->
<g id="edge15" class="edge"><title>wayfarerServer&#45;&gt;preConfiguredAccountDown</title>
<path fill="none" stroke="black" d="M632.466,-217.983C652.15,-208.071 678.219,-194.942 699.948,-184"/>
<polygon fill="black" stroke="black" points="701.606,-187.083 708.963,-179.46 698.458,-180.831 701.606,-187.083"/>
</g>
<!-- composableServers -->
<g id="node16" class="node"><title>composableServers</title>
<polygon fill="none" stroke="black" points="944.789,-108 820.505,-108 820.505,-72 944.789,-72 944.789,-108"/>
<text text-anchor="middle" x="882.647" y="-85.8" font-family="Times,serif" font-size="14.00">composableServers</text>
</g>
<!-- wayfarerServer&#45;&gt;composableServers -->
<g id="edge14" class="edge"><title>wayfarerServer&#45;&gt;composableServers</title>
<path fill="none" stroke="black" d="M600.723,-215.696C599.526,-195.628 600.944,-162.893 619.647,-144 645.79,-117.592 741.513,-103.514 809.925,-96.6544"/>
<polygon fill="black" stroke="black" points="810.617,-100.104 820.232,-95.6545 809.941,-93.1366 810.617,-100.104"/>
</g>
<!-- bodyParserStream -->
<g id="node7" class="node"><title>bodyParserStream</title>
<ellipse fill="gray" stroke="gray" cx="882.647" cy="-234" rx="74.415" ry="18"/>
<text text-anchor="middle" x="882.647" y="-229.8" font-family="Times,serif" font-size="14.00" fill="white">bodyParserStream</text>
</g>
<!-- streamingLogic -->
<g id="node15" class="node"><title>streamingLogic</title>
<polygon fill="none" stroke="black" points="1099.04,-180 996.25,-180 996.25,-144 1099.04,-144 1099.04,-180"/>
<text text-anchor="middle" x="1047.65" y="-157.8" font-family="Times,serif" font-size="14.00">streamingLogic</text>
</g>
<!-- bodyParserStream&#45;&gt;streamingLogic -->
<g id="edge10" class="edge"><title>bodyParserStream&#45;&gt;streamingLogic</title>
<path fill="none" stroke="black" d="M918.044,-217.983C941.405,-208.073 972.343,-194.947 998.133,-184.006"/>
<polygon fill="black" stroke="black" points="999.54,-187.211 1007.38,-180.084 996.806,-180.767 999.54,-187.211"/>
</g>
<!-- levelWriteStream -->
<g id="node8" class="node"><title>levelWriteStream</title>
<ellipse fill="gray" stroke="gray" cx="1047.65" cy="-234" rx="72.1851" ry="18"/>
<text text-anchor="middle" x="1047.65" y="-229.8" font-family="Times,serif" font-size="14.00" fill="white">levelWriteStream</text>
</g>
<!-- levelWriteStream&#45;&gt;streamingLogic -->
<g id="edge11" class="edge"><title>levelWriteStream&#45;&gt;streamingLogic</title>
<path fill="none" stroke="black" d="M1047.65,-215.697C1047.65,-207.983 1047.65,-198.712 1047.65,-190.112"/>
<polygon fill="black" stroke="black" points="1051.15,-190.104 1047.65,-180.104 1044.15,-190.104 1051.15,-190.104"/>
</g>
<!-- boleStream -->
<g id="node9" class="node"><title>boleStream</title>
<ellipse fill="green" stroke="green" cx="1188.65" cy="-234" rx="50.0733" ry="18"/>
<text text-anchor="middle" x="1188.65" y="-229.8" font-family="Times,serif" font-size="14.00" fill="white">boleStream</text>
</g>
<!-- boleStream&#45;&gt;streamingLogic -->
<g id="edge18" class="edge"><title>boleStream&#45;&gt;streamingLogic</title>
<path fill="none" stroke="black" d="M1160.45,-219.003C1140.6,-209.149 1113.66,-195.771 1091.08,-184.561"/>
<polygon fill="black" stroke="black" points="1092.54,-181.378 1082.02,-180.066 1089.42,-187.648 1092.54,-181.378"/>
</g>
<!-- httpNdjson -->
<g id="node10" class="node"><title>httpNdjson</title>
<ellipse fill="green" stroke="green" cx="1188.65" cy="-306" rx="49.1222" ry="18"/>
<text text-anchor="middle" x="1188.65" y="-301.8" font-family="Times,serif" font-size="14.00" fill="white">httpNdjson</text>
</g>
<!-- httpNdjson&#45;&gt;boleStream -->
<g id="edge9" class="edge"><title>httpNdjson&#45;&gt;boleStream</title>
<path fill="none" stroke="black" d="M1188.65,-287.697C1188.65,-279.983 1188.65,-270.712 1188.65,-262.112"/>
<polygon fill="black" stroke="black" points="1192.15,-262.104 1188.65,-252.104 1185.15,-262.104 1192.15,-262.104"/>
</g>
<!-- httpResponseStream -->
<g id="node11" class="node"><title>httpResponseStream</title>
<ellipse fill="gray" stroke="gray" cx="1188.65" cy="-378" rx="82.2173" ry="18"/>
<text text-anchor="middle" x="1188.65" y="-373.8" font-family="Times,serif" font-size="14.00" fill="white">httpResponseStream</text>
</g>
<!-- httpResponseStream&#45;&gt;httpNdjson -->
<g id="edge8" class="edge"><title>httpResponseStream&#45;&gt;httpNdjson</title>
<path fill="none" stroke="black" d="M1188.65,-359.697C1188.65,-351.983 1188.65,-342.712 1188.65,-334.112"/>
<polygon fill="black" stroke="black" points="1192.15,-334.104 1188.65,-324.104 1185.15,-334.104 1192.15,-334.104"/>
</g>
<!-- serverError -->
<g id="node12" class="node"><title>serverError</title>
<ellipse fill="gray" stroke="gray" cx="739.647" cy="-234" rx="50.054" ry="18"/>
<text text-anchor="middle" x="739.647" y="-229.8" font-family="Times,serif" font-size="14.00" fill="white">serverError</text>
</g>
<!-- serverError&#45;&gt;preConfiguredAccountDown -->
<g id="edge16" class="edge"><title>serverError&#45;&gt;preConfiguredAccountDown</title>
<path fill="none" stroke="black" d="M740.142,-215.697C740.362,-207.983 740.627,-198.712 740.873,-190.112"/>
<polygon fill="black" stroke="black" points="744.371,-190.2 741.159,-180.104 737.374,-190 744.371,-190.2"/>
</g>
<!-- serverError&#45;&gt;composableServers -->
<g id="edge13" class="edge"><title>serverError&#45;&gt;composableServers</title>
<path fill="none" stroke="black" d="M775.989,-221.447C807.926,-210.586 851.068,-193.959 862.647,-180 876.913,-162.802 881.529,-137.527 882.799,-118.301"/>
<polygon fill="black" stroke="black" points="886.306,-118.191 883.204,-108.061 879.311,-117.914 886.306,-118.191"/>
</g>
<!-- preConfiguredAccountDown&#45;&gt;composableServers -->
<g id="edge17" class="edge"><title>preConfiguredAccountDown&#45;&gt;composableServers</title>
<path fill="none" stroke="black" d="M774.35,-144.765C793.625,-135.195 818.253,-122.969 839.151,-112.594"/>
<polygon fill="black" stroke="black" points="840.754,-115.706 848.155,-108.124 837.641,-109.436 840.754,-115.706"/>
</g>
<!-- headerStream -->
<g id="node14" class="node"><title>headerStream</title>
<ellipse fill="gray" stroke="gray" cx="1315.65" cy="-234" rx="58.5794" ry="18"/>
<text text-anchor="middle" x="1315.65" y="-229.8" font-family="Times,serif" font-size="14.00" fill="white">headerStream</text>
</g>
<!-- headerStream&#45;&gt;streamingLogic -->
<g id="edge12" class="edge"><title>headerStream&#45;&gt;streamingLogic</title>
<path fill="none" stroke="black" d="M1272.59,-221.753C1228.34,-210.195 1159.04,-192.094 1109.05,-179.037"/>
<polygon fill="black" stroke="black" points="1109.88,-175.637 1099.32,-176.496 1108.11,-182.41 1109.88,-175.637"/>
</g>
<!-- streamingLogic&#45;&gt;composableServers -->
<g id="edge19" class="edge"><title>streamingLogic&#45;&gt;composableServers</title>
<path fill="none" stroke="black" d="M1007.28,-143.876C984.627,-134.264 956.174,-122.193 932.177,-112.013"/>
<polygon fill="black" stroke="black" points="933.452,-108.752 922.88,-108.068 930.719,-115.196 933.452,-108.752"/>
</g>
<!-- composableApplications -->
<g id="node40" class="node"><title>composableApplications</title>
<polygon fill="none" stroke="black" points="1305.96,-36 1151.34,-36 1151.34,-0 1305.96,-0 1305.96,-36"/>
<text text-anchor="middle" x="1228.65" y="-13.8" font-family="Times,serif" font-size="14.00">composableApplications</text>
</g>
<!-- composableServers&#45;&gt;composableApplications -->
<g id="edge47" class="edge"><title>composableServers&#45;&gt;composableApplications</title>
<path fill="none" stroke="black" d="M944.905,-76.4046C999.734,-65.3118 1080.17,-49.0393 1141.41,-36.6496"/>
<polygon fill="black" stroke="black" points="1142.34,-40.0316 1151.45,-34.6181 1140.95,-33.1706 1142.34,-40.0316"/>
</g>
<!-- gherkinStream -->
<g id="node17" class="node"><title>gherkinStream</title>
<ellipse fill="green" stroke="green" cx="2099.65" cy="-378" rx="62.2554" ry="18"/>
<text text-anchor="middle" x="2099.65" y="-373.8" font-family="Times,serif" font-size="14.00" fill="white">gherkinStream</text>
</g>
<!-- cukeTap -->
<g id="node18" class="node"><title>cukeTap</title>
<ellipse fill="orange" stroke="orange" cx="2099.65" cy="-306" rx="39.3988" ry="18"/>
<text text-anchor="middle" x="2099.65" y="-301.8" font-family="Times,serif" font-size="14.00" fill="white">cukeTap</text>
</g>
<!-- gherkinStream&#45;&gt;cukeTap -->
<g id="edge20" class="edge"><title>gherkinStream&#45;&gt;cukeTap</title>
<path fill="none" stroke="black" d="M2099.65,-359.697C2099.65,-351.983 2099.65,-342.712 2099.65,-334.112"/>
<polygon fill="black" stroke="black" points="2103.15,-334.104 2099.65,-324.104 2096.15,-334.104 2103.15,-334.104"/>
</g>
<!-- autoNpmInstall -->
<g id="node19" class="node"><title>autoNpmInstall</title>
<ellipse fill="gray" stroke="gray" cx="93.6472" cy="-90" rx="65.1857" ry="18"/>
<text text-anchor="middle" x="93.6472" y="-85.8" font-family="Times,serif" font-size="14.00" fill="white">autoNpmInstall</text>
</g>
<!-- instantProjects -->
<g id="node26" class="node"><title>instantProjects</title>
<polygon fill="none" stroke="black" points="334.974,-36 236.321,-36 236.321,-0 334.974,-0 334.974,-36"/>
<text text-anchor="middle" x="285.647" y="-13.8" font-family="Times,serif" font-size="14.00">instantProjects</text>
</g>
<!-- autoNpmInstall&#45;&gt;instantProjects -->
<g id="edge27" class="edge"><title>autoNpmInstall&#45;&gt;instantProjects</title>
<path fill="none" stroke="black" d="M131.58,-75.1703C159.51,-64.9876 197.943,-50.9756 229.435,-39.494"/>
<polygon fill="black" stroke="black" points="230.77,-42.7327 238.966,-36.019 228.372,-36.1561 230.77,-42.7327"/>
</g>
<!-- polyrepoUpdate -->
<g id="node20" class="node"><title>polyrepoUpdate</title>
<ellipse fill="orange" stroke="orange" cx="354.647" cy="-162" rx="67.1198" ry="18"/>
<text text-anchor="middle" x="354.647" y="-157.8" font-family="Times,serif" font-size="14.00" fill="white">polyrepoUpdate</text>
</g>
<!-- polyrepo -->
<g id="node27" class="node"><title>polyrepo</title>
<polygon fill="none" stroke="black" points="364.973,-108 300.321,-108 300.321,-72 364.973,-72 364.973,-108"/>
<text text-anchor="middle" x="332.647" y="-85.8" font-family="Times,serif" font-size="14.00">polyrepo</text>
</g>
<!-- polyrepoUpdate&#45;&gt;polyrepo -->
<g id="edge29" class="edge"><title>polyrepoUpdate&#45;&gt;polyrepo</title>
<path fill="none" stroke="black" d="M349.322,-144.055C346.872,-136.261 343.906,-126.822 341.158,-118.079"/>
<polygon fill="black" stroke="black" points="344.414,-116.766 338.077,-108.275 337.736,-118.865 344.414,-116.766"/>
</g>
<!-- initialize -->
<g id="node21" class="node"><title>initialize</title>
<ellipse fill="green" stroke="green" cx="217.647" cy="-90" rx="41.069" ry="18"/>
<text text-anchor="middle" x="217.647" y="-85.8" font-family="Times,serif" font-size="14.00" fill="white">initialize</text>
</g>
<!-- initialize&#45;&gt;instantProjects -->
<g id="edge28" class="edge"><title>initialize&#45;&gt;instantProjects</title>
<path fill="none" stroke="black" d="M233.077,-73.1159C241.571,-64.3727 252.294,-53.3337 261.838,-43.5097"/>
<polygon fill="black" stroke="black" points="264.392,-45.9037 268.849,-36.2921 259.371,-41.0262 264.392,-45.9037"/>
</g>
<!-- initializeEngine -->
<g id="node22" class="node"><title>initializeEngine</title>
<ellipse fill="orange" stroke="orange" cx="79.6472" cy="-234" rx="66.143" ry="18"/>
<text text-anchor="middle" x="79.6472" y="-229.8" font-family="Times,serif" font-size="14.00" fill="white">initializeEngine</text>
</g>
<!-- initializeEngine&#45;&gt;initialize -->
<g id="edge24" class="edge"><title>initializeEngine&#45;&gt;initialize</title>
<path fill="none" stroke="black" d="M46.9563,-218.196C31.7558,-209.436 15.1823,-196.744 6.6472,-180 -0.619047,-165.745 -3.35623,-156.487 6.6472,-144 52.4895,-86.7752 97.0571,-127.83 167.647,-108 170.781,-107.12 174.007,-106.157 177.239,-105.151"/>
<polygon fill="black" stroke="black" points="178.428,-108.445 186.87,-102.044 176.279,-101.783 178.428,-108.445"/>
</g>
<!-- initializeCli -->
<g id="node23" class="node"><title>initializeCli</title>
<ellipse fill="orange" stroke="orange" cx="217.647" cy="-162" rx="51.2893" ry="18"/>
<text text-anchor="middle" x="217.647" y="-157.8" font-family="Times,serif" font-size="14.00" fill="white">initializeCli</text>
</g>
<!-- initializeEngine&#45;&gt;initializeCli -->
<g id="edge21" class="edge"><title>initializeEngine&#45;&gt;initializeCli</title>
<path fill="none" stroke="black" d="M109.591,-217.811C130.4,-207.256 158.275,-193.116 180.501,-181.843"/>
<polygon fill="black" stroke="black" points="182.308,-184.85 189.643,-177.205 179.141,-178.607 182.308,-184.85"/>
</g>
<!-- initializeProject -->
<g id="node24" class="node"><title>initializeProject</title>
<ellipse fill="gray" stroke="gray" cx="81.6472" cy="-162" rx="66.143" ry="18"/>
<text text-anchor="middle" x="81.6472" y="-157.8" font-family="Times,serif" font-size="14.00" fill="white">initializeProject</text>
</g>
<!-- initializeEngine&#45;&gt;initializeProject -->
<g id="edge23" class="edge"><title>initializeEngine&#45;&gt;initializeProject</title>
<path fill="none" stroke="black" d="M80.1416,-215.697C80.362,-207.983 80.6268,-198.712 80.8726,-190.112"/>
<polygon fill="black" stroke="black" points="84.3714,-190.2 81.1585,-180.104 77.3742,-190 84.3714,-190.2"/>
</g>
<!-- initializeCli&#45;&gt;initialize -->
<g id="edge25" class="edge"><title>initializeCli&#45;&gt;initialize</title>
<path fill="none" stroke="black" d="M217.647,-143.697C217.647,-135.983 217.647,-126.712 217.647,-118.112"/>
<polygon fill="black" stroke="black" points="221.147,-118.104 217.647,-108.104 214.147,-118.104 221.147,-118.104"/>
</g>
<!-- initializeProject&#45;&gt;initialize -->
<g id="edge26" class="edge"><title>initializeProject&#45;&gt;initialize</title>
<path fill="none" stroke="black" d="M111.157,-145.811C132.211,-134.974 160.605,-120.36 182.779,-108.947"/>
<polygon fill="black" stroke="black" points="184.572,-111.96 191.862,-104.272 181.369,-105.736 184.572,-111.96"/>
</g>
<!-- initializeTest -->
<g id="node25" class="node"><title>initializeTest</title>
<ellipse fill="gray" stroke="gray" cx="219.647" cy="-234" rx="55.4807" ry="18"/>
<text text-anchor="middle" x="219.647" y="-229.8" font-family="Times,serif" font-size="14.00" fill="white">initializeTest</text>
</g>
<!-- initializeTest&#45;&gt;initializeCli -->
<g id="edge22" class="edge"><title>initializeTest&#45;&gt;initializeCli</title>
<path fill="none" stroke="black" d="M219.153,-215.697C218.932,-207.983 218.668,-198.712 218.422,-190.112"/>
<polygon fill="black" stroke="black" points="221.92,-190 218.136,-180.104 214.923,-190.2 221.92,-190"/>
</g>
<!-- polyrepo&#45;&gt;instantProjects -->
<g id="edge45" class="edge"><title>polyrepo&#45;&gt;instantProjects</title>
<path fill="none" stroke="black" d="M321.029,-71.6966C315.508,-63.4741 308.8,-53.4832 302.715,-44.4207"/>
<polygon fill="black" stroke="black" points="305.612,-42.4555 297.132,-36.1043 299.8,-46.3576 305.612,-42.4555"/>
</g>
<!-- stateAtom -->
<g id="node28" class="node"><title>stateAtom</title>
<ellipse fill="green" stroke="green" cx="1995.65" cy="-306" rx="46.1851" ry="18"/>
<text text-anchor="middle" x="1995.65" y="-301.8" font-family="Times,serif" font-size="14.00" fill="white">stateAtom</text>
</g>
<!-- stateChannel -->
<g id="node29" class="node"><title>stateChannel</title>
<ellipse fill="gray" stroke="gray" cx="2037.65" cy="-234" rx="55.1779" ry="18"/>
<text text-anchor="middle" x="2037.65" y="-229.8" font-family="Times,serif" font-size="14.00" fill="white">stateChannel</text>
</g>
<!-- stateAtom&#45;&gt;stateChannel -->
<g id="edge33" class="edge"><title>stateAtom&#45;&gt;stateChannel</title>
<path fill="none" stroke="black" d="M2005.6,-288.411C2010.55,-280.163 2016.64,-270.009 2022.18,-260.777"/>
<polygon fill="black" stroke="black" points="2025.33,-262.332 2027.47,-251.956 2019.33,-258.73 2025.33,-262.332"/>
</g>
<!-- portableState -->
<g id="node39" class="node"><title>portableState</title>
<polygon fill="none" stroke="black" points="1998.04,-180 1909.25,-180 1909.25,-144 1998.04,-144 1998.04,-180"/>
<text text-anchor="middle" x="1953.65" y="-157.8" font-family="Times,serif" font-size="14.00">portableState</text>
</g>
<!-- stateAtom&#45;&gt;portableState -->
<g id="edge39" class="edge"><title>stateAtom&#45;&gt;portableState</title>
<path fill="none" stroke="black" d="M1987.31,-288.146C1982.49,-277.892 1976.62,-264.419 1972.65,-252 1966.15,-231.718 1961.23,-208.121 1958.02,-190.322"/>
<polygon fill="black" stroke="black" points="1961.45,-189.583 1956.29,-180.327 1954.55,-190.777 1961.45,-189.583"/>
</g>
<!-- stateChannel&#45;&gt;portableState -->
<g id="edge40" class="edge"><title>stateChannel&#45;&gt;portableState</title>
<path fill="none" stroke="black" d="M2018.16,-216.765C2007.45,-207.839 1993.97,-196.601 1982.1,-186.711"/>
<polygon fill="black" stroke="black" points="1984.12,-183.837 1974.2,-180.124 1979.64,-189.215 1984.12,-183.837"/>
</g>
<!-- virtualHook -->
<g id="node30" class="node"><title>virtualHook</title>
<ellipse fill="orange" stroke="orange" cx="1571.65" cy="-306" rx="52.2663" ry="18"/>
<text text-anchor="middle" x="1571.65" y="-301.8" font-family="Times,serif" font-size="14.00" fill="white">virtualHook</text>
</g>
<!-- virtualValidation -->
<g id="node31" class="node"><title>virtualValidation</title>
<ellipse fill="gray" stroke="gray" cx="1571.65" cy="-234" rx="69.3116" ry="18"/>
<text text-anchor="middle" x="1571.65" y="-229.8" font-family="Times,serif" font-size="14.00" fill="white">virtualValidation</text>
</g>
<!-- virtualHook&#45;&gt;virtualValidation -->
<g id="edge34" class="edge"><title>virtualHook&#45;&gt;virtualValidation</title>
<path fill="none" stroke="black" d="M1571.65,-287.697C1571.65,-279.983 1571.65,-270.712 1571.65,-262.112"/>
<polygon fill="black" stroke="black" points="1575.15,-262.104 1571.65,-252.104 1568.15,-262.104 1575.15,-262.104"/>
</g>
<!-- composableForms -->
<g id="node38" class="node"><title>composableForms</title>
<polygon fill="none" stroke="black" points="1785.64,-180 1667.65,-180 1667.65,-144 1785.64,-144 1785.64,-180"/>
<text text-anchor="middle" x="1726.65" y="-157.8" font-family="Times,serif" font-size="14.00">composableForms</text>
</g>
<!-- virtualValidation&#45;&gt;composableForms -->
<g id="edge35" class="edge"><title>virtualValidation&#45;&gt;composableForms</title>
<path fill="none" stroke="black" d="M1604.52,-218.155C1626.33,-208.305 1655.29,-195.226 1679.54,-184.276"/>
<polygon fill="black" stroke="black" points="1681.24,-187.346 1688.92,-180.04 1678.36,-180.966 1681.24,-187.346"/>
</g>
<!-- virtualForm -->
<g id="node32" class="node"><title>virtualForm</title>
<ellipse fill="orange" stroke="orange" cx="1711.65" cy="-234" rx="52.0335" ry="18"/>
<text text-anchor="middle" x="1711.65" y="-229.8" font-family="Times,serif" font-size="14.00" fill="white">virtualForm</text>
</g>
<!-- virtualForm&#45;&gt;composableForms -->
<g id="edge37" class="edge"><title>virtualForm&#45;&gt;composableForms</title>
<path fill="none" stroke="black" d="M1715.36,-215.697C1717.01,-207.983 1718.99,-198.712 1720.84,-190.112"/>
<polygon fill="black" stroke="black" points="1724.31,-190.616 1722.98,-180.104 1717.46,-189.149 1724.31,-190.616"/>
</g>
<!-- jsonSchemaForm -->
<g id="node33" class="node"><title>jsonSchemaForm</title>
<ellipse fill="gray" stroke="gray" cx="1853.65" cy="-234" rx="72.0101" ry="18"/>
<text text-anchor="middle" x="1853.65" y="-229.8" font-family="Times,serif" font-size="14.00" fill="white">jsonSchemaForm</text>
</g>
<!-- jsonSchemaForm&#45;&gt;composableForms -->
<g id="edge38" class="edge"><title>jsonSchemaForm&#45;&gt;composableForms</title>
<path fill="none" stroke="black" d="M1825.15,-217.291C1807.85,-207.756 1785.51,-195.444 1766.48,-184.955"/>
<polygon fill="black" stroke="black" points="1768.17,-181.889 1757.72,-180.127 1764.79,-188.02 1768.17,-181.889"/>
</g>
<!-- sheetify -->
<g id="node34" class="node"><title>sheetify</title>
<ellipse fill="orange" stroke="orange" cx="1430.65" cy="-234" rx="38.1517" ry="18"/>
<text text-anchor="middle" x="1430.65" y="-229.8" font-family="Times,serif" font-size="14.00" fill="white">sheetify</text>
</g>
<!-- sheetifyNext -->
<g id="node35" class="node"><title>sheetifyNext</title>
<ellipse fill="gray" stroke="gray" cx="1430.65" cy="-162" rx="54.9384" ry="18"/>
<text text-anchor="middle" x="1430.65" y="-157.8" font-family="Times,serif" font-size="14.00" fill="white">sheetifyNext</text>
</g>
<!-- sheetify&#45;&gt;sheetifyNext -->
<g id="edge30" class="edge"><title>sheetify&#45;&gt;sheetifyNext</title>
<path fill="none" stroke="black" d="M1430.65,-215.697C1430.65,-207.983 1430.65,-198.712 1430.65,-190.112"/>
<polygon fill="black" stroke="black" points="1434.15,-190.104 1430.65,-180.104 1427.15,-190.104 1434.15,-190.104"/>
</g>
<!-- composableClients -->
<g id="node37" class="node"><title>composableClients</title>
<polygon fill="none" stroke="black" points="1564.55,-108 1442.74,-108 1442.74,-72 1564.55,-72 1564.55,-108"/>
<text text-anchor="middle" x="1503.65" y="-85.8" font-family="Times,serif" font-size="14.00">composableClients</text>
</g>
<!-- sheetify&#45;&gt;composableClients -->
<g id="edge31" class="edge"><title>sheetify&#45;&gt;composableClients</title>
<path fill="none" stroke="black" d="M1406.18,-220.077C1391.77,-210.99 1374.81,-197.363 1366.65,-180 1359.84,-165.521 1357.6,-157.198 1366.65,-144 1381.79,-121.901 1407.58,-109.014 1432.72,-101.5"/>
<polygon fill="black" stroke="black" points="1433.95,-104.793 1442.68,-98.7826 1432.11,-98.04 1433.95,-104.793"/>
</g>
<!-- sheetifyNext&#45;&gt;composableClients -->
<g id="edge32" class="edge"><title>sheetifyNext&#45;&gt;composableClients</title>
<path fill="none" stroke="black" d="M1447.58,-144.765C1456.71,-136.011 1468.16,-125.033 1478.32,-115.283"/>
<polygon fill="black" stroke="black" points="1480.99,-117.571 1485.79,-108.124 1476.15,-112.519 1480.99,-117.571"/>
</g>
<!-- inlineVirtualHtml -->
<g id="node36" class="node"><title>inlineVirtualHtml</title>
<ellipse fill="gray" stroke="gray" cx="1576.65" cy="-162" rx="72.4225" ry="18"/>
<text text-anchor="middle" x="1576.65" y="-157.8" font-family="Times,serif" font-size="14.00" fill="white">inlineVirtualHtml</text>
</g>
<!-- inlineVirtualHtml&#45;&gt;composableClients -->
<g id="edge36" class="edge"><title>inlineVirtualHtml&#45;&gt;composableClients</title>
<path fill="none" stroke="black" d="M1559.35,-144.411C1550.28,-135.712 1538.99,-124.893 1528.96,-115.271"/>
<polygon fill="black" stroke="black" points="1531.23,-112.596 1521.59,-108.201 1526.38,-117.648 1531.23,-112.596"/>
</g>
<!-- composableClients&#45;&gt;composableApplications -->
<g id="edge48" class="edge"><title>composableClients&#45;&gt;composableApplications</title>
<path fill="none" stroke="black" d="M1442.62,-73.4647C1402.25,-63.1886 1348.98,-49.6301 1305.69,-38.6119"/>
<polygon fill="black" stroke="black" points="1306.33,-35.1612 1295.77,-36.0861 1304.6,-41.9449 1306.33,-35.1612"/>
</g>
<!-- composableForms&#45;&gt;composableClients -->
<g id="edge42" class="edge"><title>composableForms&#45;&gt;composableClients</title>
<path fill="none" stroke="black" d="M1672.38,-143.966C1640.82,-134.057 1600.86,-121.514 1567.75,-111.121"/>
<polygon fill="black" stroke="black" points="1568.75,-107.766 1558.16,-108.111 1566.65,-114.445 1568.75,-107.766"/>
</g>
<!-- portableState&#45;&gt;composableClients -->
<g id="edge43" class="edge"><title>portableState&#45;&gt;composableClients</title>
<path fill="none" stroke="black" d="M1908.85,-154.032C1830.56,-141.854 1668.27,-116.608 1574.57,-102.032"/>
<polygon fill="black" stroke="black" points="1575.03,-98.5613 1564.61,-100.483 1573.95,-105.478 1575.03,-98.5613"/>
</g>
<!-- portableBuildProcess&#45;&gt;instantProjects -->
<g id="edge46" class="edge"><title>portableBuildProcess&#45;&gt;instantProjects</title>
<path fill="none" stroke="black" d="M437.734,-71.9656C409.65,-62.185 374.192,-49.8365 344.579,-39.5236"/>
<polygon fill="black" stroke="black" points="345.374,-36.0944 334.78,-36.1108 343.072,-42.705 345.374,-36.0944"/>
</g>
<!-- testableThoughts -->
<g id="node42" class="node"><title>testableThoughts</title>
<polygon fill="none" stroke="black" points="2313.89,-324 2203.41,-324 2203.41,-288 2313.89,-288 2313.89,-324"/>
<text text-anchor="middle" x="2258.65" y="-301.8" font-family="Times,serif" font-size="14.00">testableThoughts</text>
</g>
<!-- gherkinDotMashup -->
<g id="node43" class="node"><title>gherkinDotMashup</title>
<ellipse fill="none" stroke="black" cx="2258.65" cy="-378" rx="78.3226" ry="18"/>
<text text-anchor="middle" x="2258.65" y="-373.8" font-family="Times,serif" font-size="14.00">gherkinDotMashup</text>
</g>
<!-- gherkinDotMashup&#45;&gt;testableThoughts -->
<g id="edge41" class="edge"><title>gherkinDotMashup&#45;&gt;testableThoughts</title>
<path fill="none" stroke="black" d="M2258.65,-359.697C2258.65,-351.983 2258.65,-342.712 2258.65,-334.112"/>
<polygon fill="black" stroke="black" points="2262.15,-334.104 2258.65,-324.104 2255.15,-334.104 2262.15,-334.104"/>
</g>
</g>
</svg>
