<?xml version="1.0" encoding="UTF-8" standalone="no"?>
<!DOCTYPE svg PUBLIC "-//W3C//DTD SVG 1.1//EN"
 "http://www.w3.org/Graphics/SVG/1.1/DTD/svg11.dtd">
<!-- Generated by graphviz version 2.36.0 (20140111.2315)
 -->
<!-- Title: planning Pages: 1 -->
<svg width="459pt" height="260pt"
 viewBox="0.00 0.00 459.00 260.00" xmlns="http://www.w3.org/2000/svg" xmlns:xlink="http://www.w3.org/1999/xlink">
<g id="graph0" class="graph" transform="scale(1 1) rotate(0) translate(4 256)">
<title>planning</title>
<polygon fill="white" stroke="none" points="-4,4 -4,-256 455,-256 455,4 -4,4"/>
<!-- wayfarer -->
<g id="node1" class="node"><title>wayfarer</title>
<ellipse fill="none" stroke="black" cx="175" cy="-234" rx="41.2878" ry="18"/>
<text text-anchor="middle" x="175" y="-229.8" font-family="Times,serif" font-size="14.00">wayfarer</text>
</g>
<!-- wayfarerToServer -->
<g id="node3" class="node"><title>wayfarerToServer</title>
<ellipse fill="none" stroke="black" cx="73" cy="-162" rx="73.2191" ry="18"/>
<text text-anchor="middle" x="73" y="-157.8" font-family="Times,serif" font-size="14.00">wayfarerToServer</text>
</g>
<!-- wayfarer&#45;&gt;wayfarerToServer -->
<g id="edge1" class="edge"><title>wayfarer&#45;&gt;wayfarerToServer</title>
<path fill="none" stroke="black" d="M153.866,-218.496C139.784,-208.832 121.013,-195.95 105.101,-185.03"/>
<polygon fill="black" stroke="black" points="106.829,-181.971 96.6031,-179.198 102.868,-187.742 106.829,-181.971"/>
</g>
<!-- wayfarerServer -->
<g id="node5" class="node"><title>wayfarerServer</title>
<ellipse fill="none" stroke="black" cx="175" cy="-90" rx="64.408" ry="18"/>
<text text-anchor="middle" x="175" y="-85.8" font-family="Times,serif" font-size="14.00">wayfarerServer</text>
</g>
<!-- wayfarer&#45;&gt;wayfarerServer -->
<g id="edge3" class="edge"><title>wayfarer&#45;&gt;wayfarerServer</title>
<path fill="none" stroke="black" d="M175,-215.871C175,-191.67 175,-147.211 175,-118.393"/>
<polygon fill="black" stroke="black" points="178.5,-118.189 175,-108.189 171.5,-118.189 178.5,-118.189"/>
</g>
<!-- methodist -->
<g id="node2" class="node"><title>methodist</title>
<ellipse fill="none" stroke="black" cx="70" cy="-234" rx="44.4828" ry="18"/>
<text text-anchor="middle" x="70" y="-229.8" font-family="Times,serif" font-size="14.00">methodist</text>
</g>
<!-- methodist&#45;&gt;wayfarerToServer -->
<g id="edge2" class="edge"><title>methodist&#45;&gt;wayfarerToServer</title>
<path fill="none" stroke="black" d="M70.7416,-215.697C71.0722,-207.983 71.4695,-198.712 71.838,-190.112"/>
<polygon fill="black" stroke="black" points="75.3355,-190.245 72.267,-180.104 68.3419,-189.945 75.3355,-190.245"/>
</g>
<!-- wayfarerToServer&#45;&gt;wayfarerServer -->
<g id="edge4" class="edge"><title>wayfarerToServer&#45;&gt;wayfarerServer</title>
<path fill="none" stroke="black" d="M96.6572,-144.765C110.53,-135.244 128.236,-123.093 143.304,-112.752"/>
<polygon fill="black" stroke="black" points="145.558,-115.45 151.823,-106.906 141.597,-109.679 145.558,-115.45"/>
</g>
<!-- hashMatch -->
<g id="node4" class="node"><title>hashMatch</title>
<ellipse fill="none" stroke="black" cx="252" cy="-162" rx="48.3649" ry="18"/>
<text text-anchor="middle" x="252" y="-157.8" font-family="Times,serif" font-size="14.00">hashMatch</text>
</g>
<!-- hashMatch&#45;&gt;wayfarerServer -->
<g id="edge5" class="edge"><title>hashMatch&#45;&gt;wayfarerServer</title>
<path fill="none" stroke="black" d="M234.528,-145.116C224.433,-135.939 211.556,-124.233 200.363,-114.057"/>
<polygon fill="black" stroke="black" points="202.691,-111.444 192.938,-107.307 197.983,-116.624 202.691,-111.444"/>
</g>
<!-- wayfarerToFs -->
<g id="node6" class="node"><title>wayfarerToFs</title>
<ellipse fill="none" stroke="black" cx="175" cy="-18" rx="59.1371" ry="18"/>
<text text-anchor="middle" x="175" y="-13.8" font-family="Times,serif" font-size="14.00">wayfarerToFs</text>
</g>
<!-- wayfarerServer&#45;&gt;wayfarerToFs -->
<g id="edge6" class="edge"><title>wayfarerServer&#45;&gt;wayfarerToFs</title>
<path fill="none" stroke="black" d="M175,-71.6966C175,-63.9827 175,-54.7125 175,-46.1124"/>
<polygon fill="black" stroke="black" points="178.5,-46.1043 175,-36.1043 171.5,-46.1044 178.5,-46.1043"/>
</g>
<!-- httpResponseStream -->
<g id="node7" class="node"><title>httpResponseStream</title>
<ellipse fill="none" stroke="black" cx="368" cy="-234" rx="82.2173" ry="18"/>
<text text-anchor="middle" x="368" y="-229.8" font-family="Times,serif" font-size="14.00">httpResponseStream</text>
</g>
<!-- httpNdjson -->
<g id="node8" class="node"><title>httpNdjson</title>
<ellipse fill="none" stroke="black" cx="368" cy="-162" rx="49.1222" ry="18"/>
<text text-anchor="middle" x="368" y="-157.8" font-family="Times,serif" font-size="14.00">httpNdjson</text>
</g>
<!-- httpResponseStream&#45;&gt;httpNdjson -->
<g id="edge7" class="edge"><title>httpResponseStream&#45;&gt;httpNdjson</title>
<path fill="none" stroke="black" d="M368,-215.697C368,-207.983 368,-198.712 368,-190.112"/>
<polygon fill="black" stroke="black" points="371.5,-190.104 368,-180.104 364.5,-190.104 371.5,-190.104"/>
</g>
<!-- boleStream -->
<g id="node9" class="node"><title>boleStream</title>
<ellipse fill="none" stroke="black" cx="368" cy="-90" rx="50.0733" ry="18"/>
<text text-anchor="middle" x="368" y="-85.8" font-family="Times,serif" font-size="14.00">boleStream</text>
</g>
<!-- httpNdjson&#45;&gt;boleStream -->
<g id="edge8" class="edge"><title>httpNdjson&#45;&gt;boleStream</title>
<path fill="none" stroke="black" d="M368,-143.697C368,-135.983 368,-126.712 368,-118.112"/>
<polygon fill="black" stroke="black" points="371.5,-118.104 368,-108.104 364.5,-118.104 371.5,-118.104"/>
</g>
</g>
</svg>
