<?xml version="1.0" encoding="UTF-8" standalone="no"?>
<!DOCTYPE svg PUBLIC "-//W3C//DTD SVG 1.1//EN"
 "http://www.w3.org/Graphics/SVG/1.1/DTD/svg11.dtd">
<!-- Generated by graphviz version 2.36.0 (20140111.2315)
 -->
<!-- Title: planning Pages: 1 -->
<svg width="1218pt" height="404pt"
 viewBox="0.00 0.00 1218.00 404.00" xmlns="http://www.w3.org/2000/svg" xmlns:xlink="http://www.w3.org/1999/xlink">
<g id="graph0" class="graph" transform="scale(1 1) rotate(0) translate(4 400)">
<title>planning</title>
<polygon fill="white" stroke="none" points="-4,4 -4,-400 1214,-400 1214,4 -4,4"/>
<!-- hashMatch -->
<g id="node1" class="node"><title>hashMatch</title>
<ellipse fill="blue" stroke="blue" cx="252" cy="-234" rx="48.3649" ry="18"/>
<text text-anchor="middle" x="252" y="-229.8" font-family="Times,serif" font-size="14.00" fill="white">hashMatch</text>
</g>
<!-- wayfarerServer -->
<g id="node6" class="node"><title>wayfarerServer</title>
<ellipse fill="gray" stroke="gray" cx="172" cy="-162" rx="64.408" ry="18"/>
<text text-anchor="middle" x="172" y="-157.8" font-family="Times,serif" font-size="14.00" fill="white">wayfarerServer</text>
</g>
<!-- hashMatch&#45;&gt;wayfarerServer -->
<g id="edge3" class="edge"><title>hashMatch&#45;&gt;wayfarerServer</title>
<path fill="none" stroke="black" d="M233.847,-217.116C223.359,-207.939 209.981,-196.233 198.351,-186.057"/>
<polygon fill="black" stroke="black" points="200.467,-183.258 190.637,-179.307 195.858,-188.526 200.467,-183.258"/>
</g>
<!-- methodist -->
<g id="node2" class="node"><title>methodist</title>
<ellipse fill="green" stroke="green" cx="70" cy="-306" rx="44.4828" ry="18"/>
<text text-anchor="middle" x="70" y="-301.8" font-family="Times,serif" font-size="14.00" fill="white">methodist</text>
</g>
<!-- wayfarerToServer -->
<g id="node5" class="node"><title>wayfarerToServer</title>
<ellipse fill="orange" stroke="orange" cx="73" cy="-234" rx="73.2191" ry="18"/>
<text text-anchor="middle" x="73" y="-229.8" font-family="Times,serif" font-size="14.00" fill="white">wayfarerToServer</text>
</g>
<!-- methodist&#45;&gt;wayfarerToServer -->
<g id="edge1" class="edge"><title>methodist&#45;&gt;wayfarerToServer</title>
<path fill="none" stroke="black" d="M70.7416,-287.697C71.0722,-279.983 71.4695,-270.712 71.838,-262.112"/>
<polygon fill="black" stroke="black" points="75.3355,-262.245 72.267,-252.104 68.3419,-261.945 75.3355,-262.245"/>
</g>
<!-- wayfarer -->
<g id="node3" class="node"><title>wayfarer</title>
<ellipse fill="green" stroke="green" cx="175" cy="-306" rx="41.2878" ry="18"/>
<text text-anchor="middle" x="175" y="-301.8" font-family="Times,serif" font-size="14.00" fill="white">wayfarer</text>
</g>
<!-- wayfarer&#45;&gt;wayfarerToServer -->
<g id="edge2" class="edge"><title>wayfarer&#45;&gt;wayfarerToServer</title>
<path fill="none" stroke="black" d="M153.866,-290.496C139.784,-280.832 121.013,-267.95 105.101,-257.03"/>
<polygon fill="black" stroke="black" points="106.829,-253.971 96.6031,-251.198 102.868,-259.742 106.829,-253.971"/>
</g>
<!-- wayfarer&#45;&gt;wayfarerServer -->
<g id="edge4" class="edge"><title>wayfarer&#45;&gt;wayfarerServer</title>
<path fill="none" stroke="black" d="M174.638,-287.871C174.127,-263.67 173.188,-219.211 172.579,-190.393"/>
<polygon fill="black" stroke="black" points="176.074,-190.113 172.363,-180.189 169.075,-190.261 176.074,-190.113"/>
</g>
<!-- wayfarerToFs -->
<g id="node4" class="node"><title>wayfarerToFs</title>
<ellipse fill="orange" stroke="orange" cx="125" cy="-90" rx="59.1371" ry="18"/>
<text text-anchor="middle" x="125" y="-85.8" font-family="Times,serif" font-size="14.00" fill="white">wayfarerToFs</text>
</g>
<!-- portableBuildProcess -->
<g id="node23" class="node"><title>portableBuildProcess</title>
<polygon fill="none" stroke="black" points="192.32,-36 57.6799,-36 57.6799,-0 192.32,-0 192.32,-36"/>
<text text-anchor="middle" x="125" y="-13.8" font-family="Times,serif" font-size="14.00">portableBuildProcess</text>
</g>
<!-- wayfarerToFs&#45;&gt;portableBuildProcess -->
<g id="edge25" class="edge"><title>wayfarerToFs&#45;&gt;portableBuildProcess</title>
<path fill="none" stroke="black" d="M125,-71.6966C125,-63.9827 125,-54.7125 125,-46.1124"/>
<polygon fill="black" stroke="black" points="128.5,-46.1043 125,-36.1043 121.5,-46.1044 128.5,-46.1043"/>
</g>
<!-- wayfarerToServer&#45;&gt;wayfarerToFs -->
<g id="edge6" class="edge"><title>wayfarerToServer&#45;&gt;wayfarerToFs</title>
<path fill="none" stroke="black" d="M76.7312,-215.944C80.9471,-197.785 88.4789,-168.366 98,-144 101.55,-134.915 106.156,-125.319 110.555,-116.826"/>
<polygon fill="black" stroke="black" points="113.755,-118.263 115.367,-107.792 107.577,-114.973 113.755,-118.263"/>
</g>
<!-- wayfarerToServer&#45;&gt;wayfarerServer -->
<g id="edge5" class="edge"><title>wayfarerToServer&#45;&gt;wayfarerServer</title>
<path fill="none" stroke="black" d="M95.9614,-216.765C109.427,-207.244 126.612,-195.093 141.237,-184.752"/>
<polygon fill="black" stroke="black" points="143.36,-187.537 149.504,-178.906 139.319,-181.822 143.36,-187.537"/>
</g>
<!-- wayfarerServer&#45;&gt;wayfarerToFs -->
<g id="edge7" class="edge"><title>wayfarerServer&#45;&gt;wayfarerToFs</title>
<path fill="none" stroke="black" d="M160.623,-144.055C155.023,-135.715 148.158,-125.491 141.955,-116.252"/>
<polygon fill="black" stroke="black" points="144.753,-114.14 136.273,-107.789 138.941,-118.042 144.753,-114.14"/>
</g>
<!-- composableServers -->
<g id="node13" class="node"><title>composableServers</title>
<polygon fill="none" stroke="black" points="612.142,-108 487.858,-108 487.858,-72 612.142,-72 612.142,-108"/>
<text text-anchor="middle" x="550" y="-85.8" font-family="Times,serif" font-size="14.00">composableServers</text>
</g>
<!-- wayfarerServer&#45;&gt;composableServers -->
<g id="edge12" class="edge"><title>wayfarerServer&#45;&gt;composableServers</title>
<path fill="none" stroke="black" d="M219.037,-149.633C227.655,-147.668 236.584,-145.71 245,-144 324.203,-127.91 415.598,-112.435 477.532,-102.404"/>
<polygon fill="black" stroke="black" points="478.28,-105.829 487.595,-100.781 477.165,-98.9184 478.28,-105.829"/>
</g>
<!-- httpResponseStream -->
<g id="node7" class="node"><title>httpResponseStream</title>
<ellipse fill="none" stroke="black" cx="597" cy="-378" rx="82.2173" ry="18"/>
<text text-anchor="middle" x="597" y="-373.8" font-family="Times,serif" font-size="14.00">httpResponseStream</text>
</g>
<!-- httpNdjson -->
<g id="node8" class="node"><title>httpNdjson</title>
<ellipse fill="none" stroke="black" cx="597" cy="-306" rx="49.1222" ry="18"/>
<text text-anchor="middle" x="597" y="-301.8" font-family="Times,serif" font-size="14.00">httpNdjson</text>
</g>
<!-- httpResponseStream&#45;&gt;httpNdjson -->
<g id="edge8" class="edge"><title>httpResponseStream&#45;&gt;httpNdjson</title>
<path fill="none" stroke="black" d="M597,-359.697C597,-351.983 597,-342.712 597,-334.112"/>
<polygon fill="black" stroke="black" points="600.5,-334.104 597,-324.104 593.5,-334.104 600.5,-334.104"/>
</g>
<!-- boleStream -->
<g id="node9" class="node"><title>boleStream</title>
<ellipse fill="none" stroke="black" cx="597" cy="-234" rx="50.0733" ry="18"/>
<text text-anchor="middle" x="597" y="-229.8" font-family="Times,serif" font-size="14.00">boleStream</text>
</g>
<!-- httpNdjson&#45;&gt;boleStream -->
<g id="edge9" class="edge"><title>httpNdjson&#45;&gt;boleStream</title>
<path fill="none" stroke="black" d="M597,-287.697C597,-279.983 597,-270.712 597,-262.112"/>
<polygon fill="black" stroke="black" points="600.5,-262.104 597,-252.104 593.5,-262.104 600.5,-262.104"/>
</g>
<!-- streamingLogic -->
<g id="node11" class="node"><title>streamingLogic</title>
<polygon fill="none" stroke="black" points="601.397,-180 498.603,-180 498.603,-144 601.397,-144 601.397,-180"/>
<text text-anchor="middle" x="550" y="-157.8" font-family="Times,serif" font-size="14.00">streamingLogic</text>
</g>
<!-- boleStream&#45;&gt;streamingLogic -->
<g id="edge14" class="edge"><title>boleStream&#45;&gt;streamingLogic</title>
<path fill="none" stroke="black" d="M585.862,-216.411C580.349,-208.2 573.567,-198.099 567.39,-188.9"/>
<polygon fill="black" stroke="black" points="570.194,-186.798 561.714,-180.447 564.383,-190.7 570.194,-186.798"/>
</g>
<!-- bodyParserStream -->
<g id="node10" class="node"><title>bodyParserStream</title>
<ellipse fill="none" stroke="black" cx="454" cy="-234" rx="74.415" ry="18"/>
<text text-anchor="middle" x="454" y="-229.8" font-family="Times,serif" font-size="14.00">bodyParserStream</text>
</g>
<!-- bodyParserStream&#45;&gt;streamingLogic -->
<g id="edge10" class="edge"><title>bodyParserStream&#45;&gt;streamingLogic</title>
<path fill="none" stroke="black" d="M476.266,-216.765C488.742,-207.667 504.512,-196.168 518.262,-186.142"/>
<polygon fill="black" stroke="black" points="520.498,-188.844 526.516,-180.124 516.374,-183.188 520.498,-188.844"/>
</g>
<!-- streamingLogic&#45;&gt;composableServers -->
<g id="edge15" class="edge"><title>streamingLogic&#45;&gt;composableServers</title>
<path fill="none" stroke="black" d="M550,-143.697C550,-135.983 550,-126.712 550,-118.112"/>
<polygon fill="black" stroke="black" points="553.5,-118.104 550,-108.104 546.5,-118.104 553.5,-118.104"/>
</g>
<!-- serverError -->
<g id="node12" class="node"><title>serverError</title>
<ellipse fill="none" stroke="black" cx="670" cy="-162" rx="50.054" ry="18"/>
<text text-anchor="middle" x="670" y="-157.8" font-family="Times,serif" font-size="14.00">serverError</text>
</g>
<!-- serverError&#45;&gt;composableServers -->
<g id="edge11" class="edge"><title>serverError&#45;&gt;composableServers</title>
<path fill="none" stroke="black" d="M644.844,-146.326C628.425,-136.748 606.678,-124.062 588.151,-113.255"/>
<polygon fill="black" stroke="black" points="589.753,-110.137 579.352,-108.122 586.226,-116.184 589.753,-110.137"/>
</g>
<!-- composableApplications -->
<g id="node24" class="node"><title>composableApplications</title>
<polygon fill="none" stroke="black" points="751.311,-36 596.689,-36 596.689,-0 751.311,-0 751.311,-36"/>
<text text-anchor="middle" x="674" y="-13.8" font-family="Times,serif" font-size="14.00">composableApplications</text>
</g>
<!-- composableServers&#45;&gt;composableApplications -->
<g id="edge26" class="edge"><title>composableServers&#45;&gt;composableApplications</title>
<path fill="none" stroke="black" d="M580.334,-71.8761C596.697,-62.6388 617.083,-51.1308 634.654,-41.2116"/>
<polygon fill="black" stroke="black" points="636.562,-44.1536 643.55,-36.1898 633.121,-38.0579 636.562,-44.1536"/>
</g>
<!-- preConfiguredAccountDown -->
<g id="node14" class="node"><title>preConfiguredAccountDown</title>
<ellipse fill="none" stroke="black" cx="367" cy="-162" rx="112.156" ry="18"/>
<text text-anchor="middle" x="367" y="-157.8" font-family="Times,serif" font-size="14.00">preConfiguredAccountDown</text>
</g>
<!-- preConfiguredAccountDown&#45;&gt;composableServers -->
<g id="edge13" class="edge"><title>preConfiguredAccountDown&#45;&gt;composableServers</title>
<path fill="none" stroke="black" d="M408.526,-145.116C434.373,-135.229 467.894,-122.407 495.819,-111.725"/>
<polygon fill="black" stroke="black" points="497.352,-114.886 505.442,-108.044 494.851,-108.348 497.352,-114.886"/>
</g>
<!-- gherkinStream -->
<g id="node15" class="node"><title>gherkinStream</title>
<ellipse fill="green" stroke="green" cx="995" cy="-378" rx="62.2554" ry="18"/>
<text text-anchor="middle" x="995" y="-373.8" font-family="Times,serif" font-size="14.00" fill="white">gherkinStream</text>
</g>
<!-- cukeTap -->
<g id="node16" class="node"><title>cukeTap</title>
<ellipse fill="gray" stroke="gray" cx="995" cy="-306" rx="39.3988" ry="18"/>
<text text-anchor="middle" x="995" y="-301.8" font-family="Times,serif" font-size="14.00" fill="white">cukeTap</text>
</g>
<!-- gherkinStream&#45;&gt;cukeTap -->
<g id="edge16" class="edge"><title>gherkinStream&#45;&gt;cukeTap</title>
<path fill="none" stroke="black" d="M995,-359.697C995,-351.983 995,-342.712 995,-334.112"/>
<polygon fill="black" stroke="black" points="998.5,-334.104 995,-324.104 991.5,-334.104 998.5,-334.104"/>
</g>
<!-- testableThoughts -->
<g id="node27" class="node"><title>testableThoughts</title>
<polygon fill="none" stroke="black" points="1114.24,-252 1003.76,-252 1003.76,-216 1114.24,-216 1114.24,-252"/>
<text text-anchor="middle" x="1059" y="-229.8" font-family="Times,serif" font-size="14.00">testableThoughts</text>
</g>
<!-- cukeTap&#45;&gt;testableThoughts -->
<g id="edge20" class="edge"><title>cukeTap&#45;&gt;testableThoughts</title>
<path fill="none" stroke="black" d="M1009.52,-289.116C1017.44,-280.458 1027.41,-269.55 1036.33,-259.799"/>
<polygon fill="black" stroke="black" points="1039.03,-262.034 1043.19,-252.292 1033.86,-257.311 1039.03,-262.034"/>
</g>
<!-- gherkinDotMashup -->
<g id="node17" class="node"><title>gherkinDotMashup</title>
<ellipse fill="gray" stroke="gray" cx="1132" cy="-306" rx="78.3226" ry="18"/>
<text text-anchor="middle" x="1132" y="-301.8" font-family="Times,serif" font-size="14.00" fill="white">gherkinDotMashup</text>
</g>
<!-- gherkinDotMashup&#45;&gt;testableThoughts -->
<g id="edge21" class="edge"><title>gherkinDotMashup&#45;&gt;testableThoughts</title>
<path fill="none" stroke="black" d="M1114.7,-288.411C1105.63,-279.712 1094.35,-268.893 1084.31,-259.271"/>
<polygon fill="black" stroke="black" points="1086.58,-256.596 1076.94,-252.201 1081.73,-261.648 1086.58,-256.596"/>
</g>
<!-- stateAtom -->
<g id="node18" class="node"><title>stateAtom</title>
<ellipse fill="none" stroke="black" cx="931" cy="-234" rx="46.1851" ry="18"/>
<text text-anchor="middle" x="931" y="-229.8" font-family="Times,serif" font-size="14.00">stateAtom</text>
</g>
<!-- stateChannel -->
<g id="node19" class="node"><title>stateChannel</title>
<ellipse fill="none" stroke="black" cx="931" cy="-162" rx="55.1779" ry="18"/>
<text text-anchor="middle" x="931" y="-157.8" font-family="Times,serif" font-size="14.00">stateChannel</text>
</g>
<!-- stateAtom&#45;&gt;stateChannel -->
<g id="edge17" class="edge"><title>stateAtom&#45;&gt;stateChannel</title>
<path fill="none" stroke="black" d="M931,-215.697C931,-207.983 931,-198.712 931,-190.112"/>
<polygon fill="black" stroke="black" points="934.5,-190.104 931,-180.104 927.5,-190.104 934.5,-190.104"/>
</g>
<!-- composableClients -->
<g id="node26" class="node"><title>composableClients</title>
<polygon fill="none" stroke="black" points="858.905,-108 737.095,-108 737.095,-72 858.905,-72 858.905,-108"/>
<text text-anchor="middle" x="798" y="-85.8" font-family="Times,serif" font-size="14.00">composableClients</text>
</g>
<!-- stateChannel&#45;&gt;composableClients -->
<g id="edge24" class="edge"><title>stateChannel&#45;&gt;composableClients</title>
<path fill="none" stroke="black" d="M903.119,-146.326C884.673,-136.617 860.16,-123.716 839.446,-112.814"/>
<polygon fill="black" stroke="black" points="841.011,-109.682 830.531,-108.122 837.751,-115.877 841.011,-109.682"/>
</g>
<!-- virtualHook -->
<g id="node20" class="node"><title>virtualHook</title>
<ellipse fill="none" stroke="black" cx="798" cy="-378" rx="52.2663" ry="18"/>
<text text-anchor="middle" x="798" y="-373.8" font-family="Times,serif" font-size="14.00">virtualHook</text>
</g>
<!-- virtualValidation -->
<g id="node21" class="node"><title>virtualValidation</title>
<ellipse fill="none" stroke="black" cx="798" cy="-306" rx="69.3116" ry="18"/>
<text text-anchor="middle" x="798" y="-301.8" font-family="Times,serif" font-size="14.00">virtualValidation</text>
</g>
<!-- virtualHook&#45;&gt;virtualValidation -->
<g id="edge18" class="edge"><title>virtualHook&#45;&gt;virtualValidation</title>
<path fill="none" stroke="black" d="M798,-359.697C798,-351.983 798,-342.712 798,-334.112"/>
<polygon fill="black" stroke="black" points="801.5,-334.104 798,-324.104 794.5,-334.104 801.5,-334.104"/>
</g>
<!-- virtualForm -->
<g id="node22" class="node"><title>virtualForm</title>
<ellipse fill="none" stroke="black" cx="798" cy="-234" rx="52.0335" ry="18"/>
<text text-anchor="middle" x="798" y="-229.8" font-family="Times,serif" font-size="14.00">virtualForm</text>
</g>
<!-- virtualValidation&#45;&gt;virtualForm -->
<g id="edge19" class="edge"><title>virtualValidation&#45;&gt;virtualForm</title>
<path fill="none" stroke="black" d="M798,-287.697C798,-279.983 798,-270.712 798,-262.112"/>
<polygon fill="black" stroke="black" points="801.5,-262.104 798,-252.104 794.5,-262.104 801.5,-262.104"/>
</g>
<!-- composableForms -->
<g id="node25" class="node"><title>composableForms</title>
<polygon fill="none" stroke="black" points="856.992,-180 739.008,-180 739.008,-144 856.992,-144 856.992,-180"/>
<text text-anchor="middle" x="798" y="-157.8" font-family="Times,serif" font-size="14.00">composableForms</text>
</g>
<!-- virtualForm&#45;&gt;composableForms -->
<g id="edge22" class="edge"><title>virtualForm&#45;&gt;composableForms</title>
<path fill="none" stroke="black" d="M798,-215.697C798,-207.983 798,-198.712 798,-190.112"/>
<polygon fill="black" stroke="black" points="801.5,-190.104 798,-180.104 794.5,-190.104 801.5,-190.104"/>
</g>
<!-- composableForms&#45;&gt;composableClients -->
<g id="edge23" class="edge"><title>composableForms&#45;&gt;composableClients</title>
<path fill="none" stroke="black" d="M798,-143.697C798,-135.983 798,-126.712 798,-118.112"/>
<polygon fill="black" stroke="black" points="801.5,-118.104 798,-108.104 794.5,-118.104 801.5,-118.104"/>
</g>
<!-- composableClients&#45;&gt;composableApplications -->
<g id="edge27" class="edge"><title>composableClients&#45;&gt;composableApplications</title>
<path fill="none" stroke="black" d="M767.666,-71.8761C751.303,-62.6388 730.917,-51.1308 713.346,-41.2116"/>
<polygon fill="black" stroke="black" points="714.879,-38.0579 704.45,-36.1898 711.438,-44.1536 714.879,-38.0579"/>
</g>
</g>
</svg>
