<?xml version="1.0" encoding="UTF-8" standalone="no"?>
<!DOCTYPE svg PUBLIC "-//W3C//DTD SVG 1.1//EN"
 "http://www.w3.org/Graphics/SVG/1.1/DTD/svg11.dtd">
<!-- Generated by graphviz version 2.36.0 (20140111.2315)
 -->
<!-- Title: planning Pages: 1 -->
<svg width="2287pt" height="404pt"
 viewBox="0.00 0.00 2286.65 404.00" xmlns="http://www.w3.org/2000/svg" xmlns:xlink="http://www.w3.org/1999/xlink">
<g id="graph0" class="graph" transform="scale(1 1) rotate(0) translate(4 400)">
<title>planning</title>
<polygon fill="white" stroke="none" points="-4,4 -4,-400 2282.65,-400 2282.65,4 -4,4"/>
<!-- hashMatch -->
<g id="node1" class="node"><title>hashMatch</title>
<ellipse fill="blue" stroke="blue" cx="601.647" cy="-306" rx="48.3649" ry="18"/>
<text text-anchor="middle" x="601.647" y="-301.8" font-family="Times,serif" font-size="14.00" fill="white">hashMatch</text>
</g>
<!-- wayfarerServer -->
<g id="node6" class="node"><title>wayfarerServer</title>
<ellipse fill="gray" stroke="gray" cx="589.647" cy="-234" rx="64.408" ry="18"/>
<text text-anchor="middle" x="589.647" y="-229.8" font-family="Times,serif" font-size="14.00" fill="white">wayfarerServer</text>
</g>
<!-- hashMatch&#45;&gt;wayfarerServer -->
<g id="edge3" class="edge"><title>hashMatch&#45;&gt;wayfarerServer</title>
<path fill="none" stroke="black" d="M598.681,-287.697C597.359,-279.983 595.769,-270.712 594.295,-262.112"/>
<polygon fill="black" stroke="black" points="597.719,-261.369 592.579,-252.104 590.819,-262.552 597.719,-261.369"/>
</g>
<!-- methodist -->
<g id="node2" class="node"><title>methodist</title>
<ellipse fill="green" stroke="green" cx="460.647" cy="-378" rx="44.4828" ry="18"/>
<text text-anchor="middle" x="460.647" y="-373.8" font-family="Times,serif" font-size="14.00" fill="white">methodist</text>
</g>
<!-- wayfarerToServer -->
<g id="node5" class="node"><title>wayfarerToServer</title>
<ellipse fill="orange" stroke="orange" cx="460.647" cy="-306" rx="73.2191" ry="18"/>
<text text-anchor="middle" x="460.647" y="-301.8" font-family="Times,serif" font-size="14.00" fill="white">wayfarerToServer</text>
</g>
<!-- methodist&#45;&gt;wayfarerToServer -->
<g id="edge1" class="edge"><title>methodist&#45;&gt;wayfarerToServer</title>
<path fill="none" stroke="black" d="M460.647,-359.697C460.647,-351.983 460.647,-342.712 460.647,-334.112"/>
<polygon fill="black" stroke="black" points="464.147,-334.104 460.647,-324.104 457.147,-334.104 464.147,-334.104"/>
</g>
<!-- wayfarer -->
<g id="node3" class="node"><title>wayfarer</title>
<ellipse fill="green" stroke="green" cx="621.647" cy="-378" rx="41.2878" ry="18"/>
<text text-anchor="middle" x="621.647" y="-373.8" font-family="Times,serif" font-size="14.00" fill="white">wayfarer</text>
</g>
<!-- wayfarer&#45;&gt;wayfarerToServer -->
<g id="edge2" class="edge"><title>wayfarer&#45;&gt;wayfarerToServer</title>
<path fill="none" stroke="black" d="M593.234,-364.647C568.659,-353.962 532.735,-338.343 504.478,-326.057"/>
<polygon fill="black" stroke="black" points="505.782,-322.807 495.216,-322.03 502.991,-329.227 505.782,-322.807"/>
</g>
<!-- wayfarer&#45;&gt;wayfarerServer -->
<g id="edge4" class="edge"><title>wayfarer&#45;&gt;wayfarerServer</title>
<path fill="none" stroke="black" d="M636.704,-360.973C651.724,-342.941 670.927,-312.916 658.647,-288 652.146,-274.808 640.608,-263.984 628.806,-255.635"/>
<polygon fill="black" stroke="black" points="630.511,-252.567 620.234,-249.994 626.664,-258.415 630.511,-252.567"/>
</g>
<!-- wayfarerToFs -->
<g id="node4" class="node"><title>wayfarerToFs</title>
<ellipse fill="orange" stroke="orange" cx="498.647" cy="-162" rx="59.1371" ry="18"/>
<text text-anchor="middle" x="498.647" y="-157.8" font-family="Times,serif" font-size="14.00" fill="white">wayfarerToFs</text>
</g>
<!-- portableBuildProcess -->
<g id="node41" class="node"><title>portableBuildProcess</title>
<polygon fill="none" stroke="black" points="553.967,-108 419.327,-108 419.327,-72 553.967,-72 553.967,-108"/>
<text text-anchor="middle" x="486.647" y="-85.8" font-family="Times,serif" font-size="14.00">portableBuildProcess</text>
</g>
<!-- wayfarerToFs&#45;&gt;portableBuildProcess -->
<g id="edge43" class="edge"><title>wayfarerToFs&#45;&gt;portableBuildProcess</title>
<path fill="none" stroke="black" d="M495.681,-143.697C494.359,-135.983 492.769,-126.712 491.295,-118.112"/>
<polygon fill="black" stroke="black" points="494.719,-117.369 489.579,-108.104 487.819,-118.552 494.719,-117.369"/>
</g>
<!-- wayfarerToServer&#45;&gt;wayfarerToFs -->
<g id="edge6" class="edge"><title>wayfarerToServer&#45;&gt;wayfarerToFs</title>
<path fill="none" stroke="black" d="M465.231,-287.871C471.736,-263.564 483.71,-218.819 491.418,-190.013"/>
<polygon fill="black" stroke="black" points="494.843,-190.754 494.047,-180.189 488.081,-188.945 494.843,-190.754"/>
</g>
<!-- wayfarerToServer&#45;&gt;wayfarerServer -->
<g id="edge5" class="edge"><title>wayfarerToServer&#45;&gt;wayfarerServer</title>
<path fill="none" stroke="black" d="M489.597,-289.291C508.15,-279.223 532.409,-266.06 552.393,-255.216"/>
<polygon fill="black" stroke="black" points="554.118,-258.262 561.238,-250.416 550.779,-252.109 554.118,-258.262"/>
</g>
<!-- wayfarerServer&#45;&gt;wayfarerToFs -->
<g id="edge7" class="edge"><title>wayfarerServer&#45;&gt;wayfarerToFs</title>
<path fill="none" stroke="black" d="M568.541,-216.765C556.28,-207.333 540.663,-195.32 527.302,-185.042"/>
<polygon fill="black" stroke="black" points="529.385,-182.229 519.325,-178.906 525.117,-187.777 529.385,-182.229"/>
</g>
<!-- preConfiguredAccountDown -->
<g id="node13" class="node"><title>preConfiguredAccountDown</title>
<ellipse fill="gray" stroke="gray" cx="729.647" cy="-162" rx="112.156" ry="18"/>
<text text-anchor="middle" x="729.647" y="-157.8" font-family="Times,serif" font-size="14.00" fill="white">preConfiguredAccountDown</text>
</g>
<!-- wayfarerServer&#45;&gt;preConfiguredAccountDown -->
<g id="edge15" class="edge"><title>wayfarerServer&#45;&gt;preConfiguredAccountDown</title>
<path fill="none" stroke="black" d="M619.681,-217.983C639.506,-208.071 665.763,-194.942 687.648,-184"/>
<polygon fill="black" stroke="black" points="689.349,-187.062 696.728,-179.46 686.219,-180.801 689.349,-187.062"/>
</g>
<!-- composableServers -->
<g id="node16" class="node"><title>composableServers</title>
<polygon fill="none" stroke="black" points="932.789,-108 808.505,-108 808.505,-72 932.789,-72 932.789,-108"/>
<text text-anchor="middle" x="870.647" y="-85.8" font-family="Times,serif" font-size="14.00">composableServers</text>
</g>
<!-- wayfarerServer&#45;&gt;composableServers -->
<g id="edge14" class="edge"><title>wayfarerServer&#45;&gt;composableServers</title>
<path fill="none" stroke="black" d="M587.941,-215.675C586.994,-195.587 588.802,-162.832 607.647,-144 633.932,-117.733 729.62,-103.62 797.986,-96.7148"/>
<polygon fill="black" stroke="black" points="798.673,-100.164 808.285,-95.7076 797.992,-93.1976 798.673,-100.164"/>
</g>
<!-- bodyParserStream -->
<g id="node7" class="node"><title>bodyParserStream</title>
<ellipse fill="gray" stroke="gray" cx="869.647" cy="-234" rx="74.415" ry="18"/>
<text text-anchor="middle" x="869.647" y="-229.8" font-family="Times,serif" font-size="14.00" fill="white">bodyParserStream</text>
</g>
<!-- streamingLogic -->
<g id="node15" class="node"><title>streamingLogic</title>
<polygon fill="none" stroke="black" points="1086.04,-180 983.25,-180 983.25,-144 1086.04,-144 1086.04,-180"/>
<text text-anchor="middle" x="1034.65" y="-157.8" font-family="Times,serif" font-size="14.00">streamingLogic</text>
</g>
<!-- bodyParserStream&#45;&gt;streamingLogic -->
<g id="edge10" class="edge"><title>bodyParserStream&#45;&gt;streamingLogic</title>
<path fill="none" stroke="black" d="M905.044,-217.983C928.405,-208.073 959.343,-194.947 985.133,-184.006"/>
<polygon fill="black" stroke="black" points="986.54,-187.211 994.378,-180.084 983.806,-180.767 986.54,-187.211"/>
</g>
<!-- levelWriteStream -->
<g id="node8" class="node"><title>levelWriteStream</title>
<ellipse fill="gray" stroke="gray" cx="1034.65" cy="-234" rx="72.1851" ry="18"/>
<text text-anchor="middle" x="1034.65" y="-229.8" font-family="Times,serif" font-size="14.00" fill="white">levelWriteStream</text>
</g>
<!-- levelWriteStream&#45;&gt;streamingLogic -->
<g id="edge11" class="edge"><title>levelWriteStream&#45;&gt;streamingLogic</title>
<path fill="none" stroke="black" d="M1034.65,-215.697C1034.65,-207.983 1034.65,-198.712 1034.65,-190.112"/>
<polygon fill="black" stroke="black" points="1038.15,-190.104 1034.65,-180.104 1031.15,-190.104 1038.15,-190.104"/>
</g>
<!-- boleStream -->
<g id="node9" class="node"><title>boleStream</title>
<ellipse fill="green" stroke="green" cx="1175.65" cy="-234" rx="50.0733" ry="18"/>
<text text-anchor="middle" x="1175.65" y="-229.8" font-family="Times,serif" font-size="14.00" fill="white">boleStream</text>
</g>
<!-- boleStream&#45;&gt;streamingLogic -->
<g id="edge18" class="edge"><title>boleStream&#45;&gt;streamingLogic</title>
<path fill="none" stroke="black" d="M1147.45,-219.003C1127.6,-209.149 1100.66,-195.771 1078.08,-184.561"/>
<polygon fill="black" stroke="black" points="1079.54,-181.378 1069.02,-180.066 1076.42,-187.648 1079.54,-181.378"/>
</g>
<!-- httpNdjson -->
<g id="node10" class="node"><title>httpNdjson</title>
<ellipse fill="green" stroke="green" cx="1175.65" cy="-306" rx="49.1222" ry="18"/>
<text text-anchor="middle" x="1175.65" y="-301.8" font-family="Times,serif" font-size="14.00" fill="white">httpNdjson</text>
</g>
<!-- httpNdjson&#45;&gt;boleStream -->
<g id="edge9" class="edge"><title>httpNdjson&#45;&gt;boleStream</title>
<path fill="none" stroke="black" d="M1175.65,-287.697C1175.65,-279.983 1175.65,-270.712 1175.65,-262.112"/>
<polygon fill="black" stroke="black" points="1179.15,-262.104 1175.65,-252.104 1172.15,-262.104 1179.15,-262.104"/>
</g>
<!-- httpResponseStream -->
<g id="node11" class="node"><title>httpResponseStream</title>
<ellipse fill="gray" stroke="gray" cx="1175.65" cy="-378" rx="82.2173" ry="18"/>
<text text-anchor="middle" x="1175.65" y="-373.8" font-family="Times,serif" font-size="14.00" fill="white">httpResponseStream</text>
</g>
<!-- httpResponseStream&#45;&gt;httpNdjson -->
<g id="edge8" class="edge"><title>httpResponseStream&#45;&gt;httpNdjson</title>
<path fill="none" stroke="black" d="M1175.65,-359.697C1175.65,-351.983 1175.65,-342.712 1175.65,-334.112"/>
<polygon fill="black" stroke="black" points="1179.15,-334.104 1175.65,-324.104 1172.15,-334.104 1179.15,-334.104"/>
</g>
<!-- serverError -->
<g id="node12" class="node"><title>serverError</title>
<ellipse fill="gray" stroke="gray" cx="726.647" cy="-234" rx="50.054" ry="18"/>
<text text-anchor="middle" x="726.647" y="-229.8" font-family="Times,serif" font-size="14.00" fill="white">serverError</text>
</g>
<!-- serverError&#45;&gt;preConfiguredAccountDown -->
<g id="edge16" class="edge"><title>serverError&#45;&gt;preConfiguredAccountDown</title>
<path fill="none" stroke="black" d="M727.389,-215.697C727.719,-207.983 728.117,-198.712 728.485,-190.112"/>
<polygon fill="black" stroke="black" points="731.983,-190.245 728.914,-180.104 724.989,-189.945 731.983,-190.245"/>
</g>
<!-- serverError&#45;&gt;composableServers -->
<g id="edge13" class="edge"><title>serverError&#45;&gt;composableServers</title>
<path fill="none" stroke="black" d="M763.281,-221.483C795.477,-210.648 838.968,-194.038 850.647,-180 864.939,-162.823 869.552,-137.545 870.814,-118.314"/>
<polygon fill="black" stroke="black" points="874.321,-118.199 871.214,-108.069 867.326,-117.925 874.321,-118.199"/>
</g>
<!-- preConfiguredAccountDown&#45;&gt;composableServers -->
<g id="edge17" class="edge"><title>preConfiguredAccountDown&#45;&gt;composableServers</title>
<path fill="none" stroke="black" d="M762.35,-144.765C781.625,-135.195 806.253,-122.969 827.151,-112.594"/>
<polygon fill="black" stroke="black" points="828.754,-115.706 836.155,-108.124 825.641,-109.436 828.754,-115.706"/>
</g>
<!-- headerStream -->
<g id="node14" class="node"><title>headerStream</title>
<ellipse fill="gray" stroke="gray" cx="1302.65" cy="-234" rx="58.5794" ry="18"/>
<text text-anchor="middle" x="1302.65" y="-229.8" font-family="Times,serif" font-size="14.00" fill="white">headerStream</text>
</g>
<!-- headerStream&#45;&gt;streamingLogic -->
<g id="edge12" class="edge"><title>headerStream&#45;&gt;streamingLogic</title>
<path fill="none" stroke="black" d="M1259.59,-221.753C1215.34,-210.195 1146.04,-192.094 1096.05,-179.037"/>
<polygon fill="black" stroke="black" points="1096.88,-175.637 1086.32,-176.496 1095.11,-182.41 1096.88,-175.637"/>
</g>
<!-- streamingLogic&#45;&gt;composableServers -->
<g id="edge19" class="edge"><title>streamingLogic&#45;&gt;composableServers</title>
<path fill="none" stroke="black" d="M994.528,-143.876C972.009,-134.264 943.729,-122.193 919.877,-112.013"/>
<polygon fill="black" stroke="black" points="921.207,-108.775 910.636,-108.068 918.459,-115.213 921.207,-108.775"/>
</g>
<!-- composableApplications -->
<g id="node40" class="node"><title>composableApplications</title>
<polygon fill="none" stroke="black" points="1293.96,-36 1139.34,-36 1139.34,-0 1293.96,-0 1293.96,-36"/>
<text text-anchor="middle" x="1216.65" y="-13.8" font-family="Times,serif" font-size="14.00">composableApplications</text>
</g>
<!-- composableServers&#45;&gt;composableApplications -->
<g id="edge46" class="edge"><title>composableServers&#45;&gt;composableApplications</title>
<path fill="none" stroke="black" d="M932.905,-76.4046C987.734,-65.3118 1068.17,-49.0393 1129.41,-36.6496"/>
<polygon fill="black" stroke="black" points="1130.34,-40.0316 1139.45,-34.6181 1128.95,-33.1706 1130.34,-40.0316"/>
</g>
<!-- gherkinStream -->
<g id="node17" class="node"><title>gherkinStream</title>
<ellipse fill="green" stroke="green" cx="2086.65" cy="-378" rx="62.2554" ry="18"/>
<text text-anchor="middle" x="2086.65" y="-373.8" font-family="Times,serif" font-size="14.00" fill="white">gherkinStream</text>
</g>
<!-- cukeTap -->
<g id="node18" class="node"><title>cukeTap</title>
<ellipse fill="orange" stroke="orange" cx="2086.65" cy="-306" rx="39.3988" ry="18"/>
<text text-anchor="middle" x="2086.65" y="-301.8" font-family="Times,serif" font-size="14.00" fill="white">cukeTap</text>
</g>
<!-- gherkinStream&#45;&gt;cukeTap -->
<g id="edge20" class="edge"><title>gherkinStream&#45;&gt;cukeTap</title>
<path fill="none" stroke="black" d="M2086.65,-359.697C2086.65,-351.983 2086.65,-342.712 2086.65,-334.112"/>
<polygon fill="black" stroke="black" points="2090.15,-334.104 2086.65,-324.104 2083.15,-334.104 2090.15,-334.104"/>
</g>
<!-- autoNpmInstall -->
<g id="node19" class="node"><title>autoNpmInstall</title>
<ellipse fill="gray" stroke="gray" cx="93.6472" cy="-90" rx="65.1857" ry="18"/>
<text text-anchor="middle" x="93.6472" y="-85.8" font-family="Times,serif" font-size="14.00" fill="white">autoNpmInstall</text>
</g>
<!-- instantProjects -->
<g id="node26" class="node"><title>instantProjects</title>
<polygon fill="none" stroke="black" points="334.974,-36 236.321,-36 236.321,-0 334.974,-0 334.974,-36"/>
<text text-anchor="middle" x="285.647" y="-13.8" font-family="Times,serif" font-size="14.00">instantProjects</text>
</g>
<!-- autoNpmInstall&#45;&gt;instantProjects -->
<g id="edge27" class="edge"><title>autoNpmInstall&#45;&gt;instantProjects</title>
<path fill="none" stroke="black" d="M131.58,-75.1703C159.51,-64.9876 197.943,-50.9756 229.435,-39.494"/>
<polygon fill="black" stroke="black" points="230.77,-42.7327 238.966,-36.019 228.372,-36.1561 230.77,-42.7327"/>
</g>
<!-- polyrepoUpdate -->
<g id="node20" class="node"><title>polyrepoUpdate</title>
<ellipse fill="orange" stroke="orange" cx="354.647" cy="-162" rx="67.1198" ry="18"/>
<text text-anchor="middle" x="354.647" y="-157.8" font-family="Times,serif" font-size="14.00" fill="white">polyrepoUpdate</text>
</g>
<!-- polyrepo -->
<g id="node27" class="node"><title>polyrepo</title>
<polygon fill="none" stroke="black" points="364.973,-108 300.321,-108 300.321,-72 364.973,-72 364.973,-108"/>
<text text-anchor="middle" x="332.647" y="-85.8" font-family="Times,serif" font-size="14.00">polyrepo</text>
</g>
<!-- polyrepoUpdate&#45;&gt;polyrepo -->
<g id="edge29" class="edge"><title>polyrepoUpdate&#45;&gt;polyrepo</title>
<path fill="none" stroke="black" d="M349.322,-144.055C346.872,-136.261 343.906,-126.822 341.158,-118.079"/>
<polygon fill="black" stroke="black" points="344.414,-116.766 338.077,-108.275 337.736,-118.865 344.414,-116.766"/>
</g>
<!-- initialize -->
<g id="node21" class="node"><title>initialize</title>
<ellipse fill="green" stroke="green" cx="217.647" cy="-90" rx="41.069" ry="18"/>
<text text-anchor="middle" x="217.647" y="-85.8" font-family="Times,serif" font-size="14.00" fill="white">initialize</text>
</g>
<!-- initialize&#45;&gt;instantProjects -->
<g id="edge28" class="edge"><title>initialize&#45;&gt;instantProjects</title>
<path fill="none" stroke="black" d="M233.077,-73.1159C241.571,-64.3727 252.294,-53.3337 261.838,-43.5097"/>
<polygon fill="black" stroke="black" points="264.392,-45.9037 268.849,-36.2921 259.371,-41.0262 264.392,-45.9037"/>
</g>
<!-- initializeEngine -->
<g id="node22" class="node"><title>initializeEngine</title>
<ellipse fill="orange" stroke="orange" cx="79.6472" cy="-234" rx="66.143" ry="18"/>
<text text-anchor="middle" x="79.6472" y="-229.8" font-family="Times,serif" font-size="14.00" fill="white">initializeEngine</text>
</g>
<!-- initializeEngine&#45;&gt;initialize -->
<g id="edge24" class="edge"><title>initializeEngine&#45;&gt;initialize</title>
<path fill="none" stroke="black" d="M46.9563,-218.196C31.7558,-209.436 15.1823,-196.744 6.6472,-180 -0.619047,-165.745 -3.35623,-156.487 6.6472,-144 52.4895,-86.7752 97.0571,-127.83 167.647,-108 170.781,-107.12 174.007,-106.157 177.239,-105.151"/>
<polygon fill="black" stroke="black" points="178.428,-108.445 186.87,-102.044 176.279,-101.783 178.428,-108.445"/>
</g>
<!-- initializeCli -->
<g id="node23" class="node"><title>initializeCli</title>
<ellipse fill="orange" stroke="orange" cx="217.647" cy="-162" rx="51.2893" ry="18"/>
<text text-anchor="middle" x="217.647" y="-157.8" font-family="Times,serif" font-size="14.00" fill="white">initializeCli</text>
</g>
<!-- initializeEngine&#45;&gt;initializeCli -->
<g id="edge21" class="edge"><title>initializeEngine&#45;&gt;initializeCli</title>
<path fill="none" stroke="black" d="M109.591,-217.811C130.4,-207.256 158.275,-193.116 180.501,-181.843"/>
<polygon fill="black" stroke="black" points="182.308,-184.85 189.643,-177.205 179.141,-178.607 182.308,-184.85"/>
</g>
<!-- initializeProject -->
<g id="node24" class="node"><title>initializeProject</title>
<ellipse fill="gray" stroke="gray" cx="81.6472" cy="-162" rx="66.143" ry="18"/>
<text text-anchor="middle" x="81.6472" y="-157.8" font-family="Times,serif" font-size="14.00" fill="white">initializeProject</text>
</g>
<!-- initializeEngine&#45;&gt;initializeProject -->
<g id="edge23" class="edge"><title>initializeEngine&#45;&gt;initializeProject</title>
<path fill="none" stroke="black" d="M80.1416,-215.697C80.362,-207.983 80.6268,-198.712 80.8726,-190.112"/>
<polygon fill="black" stroke="black" points="84.3714,-190.2 81.1585,-180.104 77.3742,-190 84.3714,-190.2"/>
</g>
<!-- initializeCli&#45;&gt;initialize -->
<g id="edge25" class="edge"><title>initializeCli&#45;&gt;initialize</title>
<path fill="none" stroke="black" d="M217.647,-143.697C217.647,-135.983 217.647,-126.712 217.647,-118.112"/>
<polygon fill="black" stroke="black" points="221.147,-118.104 217.647,-108.104 214.147,-118.104 221.147,-118.104"/>
</g>
<!-- initializeProject&#45;&gt;initialize -->
<g id="edge26" class="edge"><title>initializeProject&#45;&gt;initialize</title>
<path fill="none" stroke="black" d="M111.157,-145.811C132.211,-134.974 160.605,-120.36 182.779,-108.947"/>
<polygon fill="black" stroke="black" points="184.572,-111.96 191.862,-104.272 181.369,-105.736 184.572,-111.96"/>
</g>
<!-- initializeTest -->
<g id="node25" class="node"><title>initializeTest</title>
<ellipse fill="gray" stroke="gray" cx="219.647" cy="-234" rx="55.4807" ry="18"/>
<text text-anchor="middle" x="219.647" y="-229.8" font-family="Times,serif" font-size="14.00" fill="white">initializeTest</text>
</g>
<!-- initializeTest&#45;&gt;initializeCli -->
<g id="edge22" class="edge"><title>initializeTest&#45;&gt;initializeCli</title>
<path fill="none" stroke="black" d="M219.153,-215.697C218.932,-207.983 218.668,-198.712 218.422,-190.112"/>
<polygon fill="black" stroke="black" points="221.92,-190 218.136,-180.104 214.923,-190.2 221.92,-190"/>
</g>
<!-- polyrepo&#45;&gt;instantProjects -->
<g id="edge44" class="edge"><title>polyrepo&#45;&gt;instantProjects</title>
<path fill="none" stroke="black" d="M321.029,-71.6966C315.508,-63.4741 308.8,-53.4832 302.715,-44.4207"/>
<polygon fill="black" stroke="black" points="305.612,-42.4555 297.132,-36.1043 299.8,-46.3576 305.612,-42.4555"/>
</g>
<!-- stateAtom -->
<g id="node28" class="node"><title>stateAtom</title>
<ellipse fill="green" stroke="green" cx="1982.65" cy="-306" rx="46.1851" ry="18"/>
<text text-anchor="middle" x="1982.65" y="-301.8" font-family="Times,serif" font-size="14.00" fill="white">stateAtom</text>
</g>
<!-- stateChannel -->
<g id="node29" class="node"><title>stateChannel</title>
<ellipse fill="gray" stroke="gray" cx="2024.65" cy="-234" rx="55.1779" ry="18"/>
<text text-anchor="middle" x="2024.65" y="-229.8" font-family="Times,serif" font-size="14.00" fill="white">stateChannel</text>
</g>
<!-- stateAtom&#45;&gt;stateChannel -->
<g id="edge33" class="edge"><title>stateAtom&#45;&gt;stateChannel</title>
<path fill="none" stroke="black" d="M1992.6,-288.411C1997.55,-280.163 2003.64,-270.009 2009.18,-260.777"/>
<polygon fill="black" stroke="black" points="2012.33,-262.332 2014.47,-251.956 2006.33,-258.73 2012.33,-262.332"/>
</g>
<!-- portableState -->
<g id="node39" class="node"><title>portableState</title>
<polygon fill="none" stroke="black" points="1985.04,-180 1896.25,-180 1896.25,-144 1985.04,-144 1985.04,-180"/>
<text text-anchor="middle" x="1940.65" y="-157.8" font-family="Times,serif" font-size="14.00">portableState</text>
</g>
<!-- stateAtom&#45;&gt;portableState -->
<g id="edge39" class="edge"><title>stateAtom&#45;&gt;portableState</title>
<path fill="none" stroke="black" d="M1974.31,-288.146C1969.49,-277.892 1963.62,-264.419 1959.65,-252 1953.15,-231.718 1948.23,-208.121 1945.02,-190.322"/>
<polygon fill="black" stroke="black" points="1948.45,-189.583 1943.29,-180.327 1941.55,-190.777 1948.45,-189.583"/>
</g>
<!-- stateChannel&#45;&gt;portableState -->
<g id="edge40" class="edge"><title>stateChannel&#45;&gt;portableState</title>
<path fill="none" stroke="black" d="M2005.16,-216.765C1994.45,-207.839 1980.97,-196.601 1969.1,-186.711"/>
<polygon fill="black" stroke="black" points="1971.12,-183.837 1961.2,-180.124 1966.64,-189.215 1971.12,-183.837"/>
</g>
<!-- virtualHook -->
<g id="node30" class="node"><title>virtualHook</title>
<ellipse fill="orange" stroke="orange" cx="1558.65" cy="-306" rx="52.2663" ry="18"/>
<text text-anchor="middle" x="1558.65" y="-301.8" font-family="Times,serif" font-size="14.00" fill="white">virtualHook</text>
</g>
<!-- virtualValidation -->
<g id="node31" class="node"><title>virtualValidation</title>
<ellipse fill="gray" stroke="gray" cx="1558.65" cy="-234" rx="69.3116" ry="18"/>
<text text-anchor="middle" x="1558.65" y="-229.8" font-family="Times,serif" font-size="14.00" fill="white">virtualValidation</text>
</g>
<!-- virtualHook&#45;&gt;virtualValidation -->
<g id="edge34" class="edge"><title>virtualHook&#45;&gt;virtualValidation</title>
<path fill="none" stroke="black" d="M1558.65,-287.697C1558.65,-279.983 1558.65,-270.712 1558.65,-262.112"/>
<polygon fill="black" stroke="black" points="1562.15,-262.104 1558.65,-252.104 1555.15,-262.104 1562.15,-262.104"/>
</g>
<!-- composableForms -->
<g id="node38" class="node"><title>composableForms</title>
<polygon fill="none" stroke="black" points="1772.64,-180 1654.65,-180 1654.65,-144 1772.64,-144 1772.64,-180"/>
<text text-anchor="middle" x="1713.65" y="-157.8" font-family="Times,serif" font-size="14.00">composableForms</text>
</g>
<!-- virtualValidation&#45;&gt;composableForms -->
<g id="edge35" class="edge"><title>virtualValidation&#45;&gt;composableForms</title>
<path fill="none" stroke="black" d="M1591.52,-218.155C1613.33,-208.305 1642.29,-195.226 1666.54,-184.276"/>
<polygon fill="black" stroke="black" points="1668.24,-187.346 1675.92,-180.04 1665.36,-180.966 1668.24,-187.346"/>
</g>
<!-- virtualForm -->
<g id="node32" class="node"><title>virtualForm</title>
<ellipse fill="orange" stroke="orange" cx="1698.65" cy="-234" rx="52.0335" ry="18"/>
<text text-anchor="middle" x="1698.65" y="-229.8" font-family="Times,serif" font-size="14.00" fill="white">virtualForm</text>
</g>
<!-- virtualForm&#45;&gt;composableForms -->
<g id="edge37" class="edge"><title>virtualForm&#45;&gt;composableForms</title>
<path fill="none" stroke="black" d="M1702.36,-215.697C1704.01,-207.983 1705.99,-198.712 1707.84,-190.112"/>
<polygon fill="black" stroke="black" points="1711.31,-190.616 1709.98,-180.104 1704.46,-189.149 1711.31,-190.616"/>
</g>
<!-- jsonSchemaForm -->
<g id="node33" class="node"><title>jsonSchemaForm</title>
<ellipse fill="gray" stroke="gray" cx="1840.65" cy="-234" rx="72.0101" ry="18"/>
<text text-anchor="middle" x="1840.65" y="-229.8" font-family="Times,serif" font-size="14.00" fill="white">jsonSchemaForm</text>
</g>
<!-- jsonSchemaForm&#45;&gt;composableForms -->
<g id="edge38" class="edge"><title>jsonSchemaForm&#45;&gt;composableForms</title>
<path fill="none" stroke="black" d="M1812.15,-217.291C1794.85,-207.756 1772.51,-195.444 1753.48,-184.955"/>
<polygon fill="black" stroke="black" points="1755.17,-181.889 1744.72,-180.127 1751.79,-188.02 1755.17,-181.889"/>
</g>
<!-- sheetify -->
<g id="node34" class="node"><title>sheetify</title>
<ellipse fill="orange" stroke="orange" cx="1417.65" cy="-234" rx="38.1517" ry="18"/>
<text text-anchor="middle" x="1417.65" y="-229.8" font-family="Times,serif" font-size="14.00" fill="white">sheetify</text>
</g>
<!-- sheetifyNext -->
<g id="node35" class="node"><title>sheetifyNext</title>
<ellipse fill="gray" stroke="gray" cx="1417.65" cy="-162" rx="54.9384" ry="18"/>
<text text-anchor="middle" x="1417.65" y="-157.8" font-family="Times,serif" font-size="14.00" fill="white">sheetifyNext</text>
</g>
<!-- sheetify&#45;&gt;sheetifyNext -->
<g id="edge30" class="edge"><title>sheetify&#45;&gt;sheetifyNext</title>
<path fill="none" stroke="black" d="M1417.65,-215.697C1417.65,-207.983 1417.65,-198.712 1417.65,-190.112"/>
<polygon fill="black" stroke="black" points="1421.15,-190.104 1417.65,-180.104 1414.15,-190.104 1421.15,-190.104"/>
</g>
<!-- composableClients -->
<g id="node37" class="node"><title>composableClients</title>
<polygon fill="none" stroke="black" points="1551.55,-108 1429.74,-108 1429.74,-72 1551.55,-72 1551.55,-108"/>
<text text-anchor="middle" x="1490.65" y="-85.8" font-family="Times,serif" font-size="14.00">composableClients</text>
</g>
<!-- sheetify&#45;&gt;composableClients -->
<g id="edge31" class="edge"><title>sheetify&#45;&gt;composableClients</title>
<path fill="none" stroke="black" d="M1393.18,-220.077C1378.77,-210.99 1361.81,-197.363 1353.65,-180 1346.84,-165.521 1344.6,-157.198 1353.65,-144 1368.79,-121.901 1394.58,-109.014 1419.72,-101.5"/>
<polygon fill="black" stroke="black" points="1420.95,-104.793 1429.68,-98.7826 1419.11,-98.04 1420.95,-104.793"/>
</g>
<!-- sheetifyNext&#45;&gt;composableClients -->
<g id="edge32" class="edge"><title>sheetifyNext&#45;&gt;composableClients</title>
<path fill="none" stroke="black" d="M1434.58,-144.765C1443.71,-136.011 1455.16,-125.033 1465.32,-115.283"/>
<polygon fill="black" stroke="black" points="1467.99,-117.571 1472.79,-108.124 1463.15,-112.519 1467.99,-117.571"/>
</g>
<!-- inlineVirtualHtml -->
<g id="node36" class="node"><title>inlineVirtualHtml</title>
<ellipse fill="gray" stroke="gray" cx="1563.65" cy="-162" rx="72.4225" ry="18"/>
<text text-anchor="middle" x="1563.65" y="-157.8" font-family="Times,serif" font-size="14.00" fill="white">inlineVirtualHtml</text>
</g>
<!-- inlineVirtualHtml&#45;&gt;composableClients -->
<g id="edge36" class="edge"><title>inlineVirtualHtml&#45;&gt;composableClients</title>
<path fill="none" stroke="black" d="M1546.35,-144.411C1537.28,-135.712 1525.99,-124.893 1515.96,-115.271"/>
<polygon fill="black" stroke="black" points="1518.23,-112.596 1508.59,-108.201 1513.38,-117.648 1518.23,-112.596"/>
</g>
<!-- composableClients&#45;&gt;composableApplications -->
<g id="edge47" class="edge"><title>composableClients&#45;&gt;composableApplications</title>
<path fill="none" stroke="black" d="M1429.5,-73.3778C1389.26,-63.0976 1336.27,-49.5607 1293.23,-38.5652"/>
<polygon fill="black" stroke="black" points="1293.92,-35.129 1283.37,-36.0447 1292.19,-41.9111 1293.92,-35.129"/>
</g>
<!-- composableForms&#45;&gt;composableClients -->
<g id="edge41" class="edge"><title>composableForms&#45;&gt;composableClients</title>
<path fill="none" stroke="black" d="M1659.38,-143.966C1627.82,-134.057 1587.86,-121.514 1554.75,-111.121"/>
<polygon fill="black" stroke="black" points="1555.75,-107.766 1545.16,-108.111 1553.65,-114.445 1555.75,-107.766"/>
</g>
<!-- portableState&#45;&gt;composableClients -->
<g id="edge42" class="edge"><title>portableState&#45;&gt;composableClients</title>
<path fill="none" stroke="black" d="M1895.85,-154.032C1817.56,-141.854 1655.27,-116.608 1561.57,-102.032"/>
<polygon fill="black" stroke="black" points="1562.03,-98.5613 1551.61,-100.483 1560.95,-105.478 1562.03,-98.5613"/>
</g>
<!-- portableBuildProcess&#45;&gt;instantProjects -->
<g id="edge45" class="edge"><title>portableBuildProcess&#45;&gt;instantProjects</title>
<path fill="none" stroke="black" d="M437.734,-71.9656C409.65,-62.185 374.192,-49.8365 344.579,-39.5236"/>
<polygon fill="black" stroke="black" points="345.374,-36.0944 334.78,-36.1108 343.072,-42.705 345.374,-36.0944"/>
</g>
<!-- testableThoughts -->
<g id="node42" class="node"><title>testableThoughts</title>
<polygon fill="none" stroke="black" points="2277.89,-396 2167.41,-396 2167.41,-360 2277.89,-360 2277.89,-396"/>
<text text-anchor="middle" x="2222.65" y="-373.8" font-family="Times,serif" font-size="14.00">testableThoughts</text>
</g>
</g>
</svg>
